%TF.GenerationSoftware,KiCad,Pcbnew,7.99.0-1450-gc37332bdb3*%
%TF.CreationDate,2023-08-19T09:53:15+01:00*%
%TF.ProjectId,benboard,62656e62-6f61-4726-942e-6b696361645f,rev?*%
%TF.SameCoordinates,Original*%
%TF.FileFunction,Soldermask,Bot*%
%TF.FilePolarity,Negative*%
%FSLAX46Y46*%
G04 Gerber Fmt 4.6, Leading zero omitted, Abs format (unit mm)*
G04 Created by KiCad (PCBNEW 7.99.0-1450-gc37332bdb3) date 2023-08-19 09:53:15*
%MOMM*%
%LPD*%
G01*
G04 APERTURE LIST*
G04 Aperture macros list*
%AMRoundRect*
0 Rectangle with rounded corners*
0 $1 Rounding radius*
0 $2 $3 $4 $5 $6 $7 $8 $9 X,Y pos of 4 corners*
0 Add a 4 corners polygon primitive as box body*
4,1,4,$2,$3,$4,$5,$6,$7,$8,$9,$2,$3,0*
0 Add four circle primitives for the rounded corners*
1,1,$1+$1,$2,$3*
1,1,$1+$1,$4,$5*
1,1,$1+$1,$6,$7*
1,1,$1+$1,$8,$9*
0 Add four rect primitives between the rounded corners*
20,1,$1+$1,$2,$3,$4,$5,0*
20,1,$1+$1,$4,$5,$6,$7,0*
20,1,$1+$1,$6,$7,$8,$9,0*
20,1,$1+$1,$8,$9,$2,$3,0*%
%AMRotRect*
0 Rectangle, with rotation*
0 The origin of the aperture is its center*
0 $1 length*
0 $2 width*
0 $3 Rotation angle, in degrees counterclockwise*
0 Add horizontal line*
21,1,$1,$2,0,0,$3*%
G04 Aperture macros list end*
%ADD10C,1.701800*%
%ADD11C,3.000000*%
%ADD12C,3.987800*%
%ADD13R,2.550000X2.500000*%
%ADD14RoundRect,0.250000X0.600000X0.750000X-0.600000X0.750000X-0.600000X-0.750000X0.600000X-0.750000X0*%
%ADD15O,1.700000X2.000000*%
%ADD16RotRect,2.550000X2.500000X164.000000*%
%ADD17RotRect,2.550000X2.500000X172.000000*%
%ADD18RoundRect,0.225000X-0.250000X0.225000X-0.250000X-0.225000X0.250000X-0.225000X0.250000X0.225000X0*%
%ADD19C,0.990600*%
%ADD20C,0.787400*%
%ADD21RoundRect,0.225000X-0.225000X-0.250000X0.225000X-0.250000X0.225000X0.250000X-0.225000X0.250000X0*%
%ADD22RoundRect,0.225000X0.225000X0.250000X-0.225000X0.250000X-0.225000X-0.250000X0.225000X-0.250000X0*%
%ADD23RoundRect,0.225000X0.250000X-0.225000X0.250000X0.225000X-0.250000X0.225000X-0.250000X-0.225000X0*%
%ADD24RotRect,0.280000X1.250000X335.013000*%
%ADD25RotRect,1.800000X2.000000X335.013000*%
%ADD26RoundRect,0.218750X0.218750X0.256250X-0.218750X0.256250X-0.218750X-0.256250X0.218750X-0.256250X0*%
%ADD27R,0.900000X0.400000*%
%ADD28RoundRect,0.218750X-0.256250X0.218750X-0.256250X-0.218750X0.256250X-0.218750X0.256250X0.218750X0*%
%ADD29C,0.650000*%
%ADD30R,0.600000X1.240000*%
%ADD31R,0.300000X1.240000*%
%ADD32O,1.000000X1.800000*%
%ADD33O,1.000000X2.100000*%
%ADD34R,1.200000X1.400000*%
%ADD35RoundRect,0.200000X-0.200000X-0.275000X0.200000X-0.275000X0.200000X0.275000X-0.200000X0.275000X0*%
%ADD36R,0.700000X1.000000*%
%ADD37R,0.700000X0.600000*%
%ADD38R,1.400000X1.200000*%
%ADD39R,1.050000X1.000000*%
%ADD40R,2.200000X1.050000*%
%ADD41RoundRect,0.218750X-0.218750X-0.256250X0.218750X-0.256250X0.218750X0.256250X-0.218750X0.256250X0*%
%ADD42RoundRect,0.062500X0.337500X0.062500X-0.337500X0.062500X-0.337500X-0.062500X0.337500X-0.062500X0*%
%ADD43RoundRect,0.062500X0.062500X0.337500X-0.062500X0.337500X-0.062500X-0.337500X0.062500X-0.337500X0*%
%ADD44R,3.600000X3.600000*%
%ADD45RoundRect,0.200000X-0.275000X0.200000X-0.275000X-0.200000X0.275000X-0.200000X0.275000X0.200000X0*%
%ADD46C,0.250000*%
%ADD47RotRect,4.850000X4.850000X225.000000*%
%ADD48RoundRect,0.200000X0.200000X0.275000X-0.200000X0.275000X-0.200000X-0.275000X0.200000X-0.275000X0*%
G04 APERTURE END LIST*
D10*
%TO.C,SW16*%
X173201483Y-54964220D03*
D11*
X171931483Y-57504220D03*
D12*
X168121483Y-54964220D03*
D11*
X165581483Y-60044220D03*
D10*
X163041483Y-54964220D03*
D13*
X161831483Y-60044220D03*
X175681483Y-57504220D03*
%TD*%
D10*
%TO.C,SW6*%
X96880000Y-96600000D03*
D11*
X95610000Y-99140000D03*
D12*
X91800000Y-96600000D03*
D11*
X89260000Y-101680000D03*
D10*
X86720000Y-96600000D03*
D13*
X85510000Y-101680000D03*
X99360000Y-99140000D03*
%TD*%
D10*
%TO.C,SW8*%
X115998494Y-74184805D03*
D11*
X114728494Y-76724805D03*
D12*
X110918494Y-74184805D03*
D11*
X108378494Y-79264805D03*
D10*
X105838494Y-74184805D03*
D13*
X104628494Y-79264805D03*
X118478494Y-76724805D03*
%TD*%
D10*
%TO.C,SW5*%
X96879895Y-77541207D03*
D11*
X95609895Y-80081207D03*
D12*
X91799895Y-77541207D03*
D11*
X89259895Y-82621207D03*
D10*
X86719895Y-77541207D03*
D13*
X85509895Y-82621207D03*
X99359895Y-80081207D03*
%TD*%
D10*
%TO.C,SW18*%
X173196830Y-93114347D03*
D11*
X171926830Y-95654347D03*
D12*
X168116830Y-93114347D03*
D11*
X165576830Y-98194347D03*
D10*
X163036830Y-93114347D03*
D13*
X161826830Y-98194347D03*
X175676830Y-95654347D03*
%TD*%
D10*
%TO.C,SW10*%
X135069237Y-52890911D03*
D11*
X133799237Y-55430911D03*
D12*
X129989237Y-52890911D03*
D11*
X127449237Y-57970911D03*
D10*
X124909237Y-52890911D03*
D13*
X123699237Y-57970911D03*
X137549237Y-55430911D03*
%TD*%
D10*
%TO.C,SW4*%
X96884653Y-58449873D03*
D11*
X95614653Y-60989873D03*
D12*
X91804653Y-58449873D03*
D11*
X89264653Y-63529873D03*
D10*
X86724653Y-58449873D03*
D13*
X85514653Y-63529873D03*
X99364653Y-60989873D03*
%TD*%
D10*
%TO.C,SW14*%
X154137663Y-73100569D03*
D11*
X152867663Y-75640569D03*
D12*
X149057663Y-73100569D03*
D11*
X146517663Y-78180569D03*
D10*
X143977663Y-73100569D03*
D13*
X142767663Y-78180569D03*
X156617663Y-75640569D03*
%TD*%
D14*
%TO.C,J4*%
X154330000Y-63750000D03*
D15*
X151830000Y-63750000D03*
%TD*%
D10*
%TO.C,SW9*%
X115998599Y-93243598D03*
D11*
X114728599Y-95783598D03*
D12*
X110918599Y-93243598D03*
D11*
X108378599Y-98323598D03*
D10*
X105838599Y-93243598D03*
D13*
X104628599Y-98323598D03*
X118478599Y-95783598D03*
%TD*%
D10*
%TO.C,SW7*%
X116003252Y-55093471D03*
D11*
X114733252Y-57633471D03*
D12*
X110923252Y-55093471D03*
D11*
X108383252Y-60173471D03*
D10*
X105843252Y-55093471D03*
D13*
X104633252Y-60173471D03*
X118483252Y-57633471D03*
%TD*%
D10*
%TO.C,SW11*%
X135070000Y-71982245D03*
D11*
X133800000Y-74522245D03*
D12*
X129990000Y-71982245D03*
D11*
X127450000Y-77062245D03*
D10*
X124910000Y-71982245D03*
D13*
X123700000Y-77062245D03*
X137550000Y-74522245D03*
%TD*%
D10*
%TO.C,SW19*%
X154115000Y-113400000D03*
D11*
X152845000Y-115940000D03*
D12*
X149035000Y-113400000D03*
D11*
X146495000Y-118480000D03*
D10*
X143955000Y-113400000D03*
D13*
X142745000Y-118480000D03*
X156595000Y-115940000D03*
%TD*%
D10*
%TO.C,SW2*%
X77845000Y-82000000D03*
D11*
X76575000Y-84540000D03*
D12*
X72765000Y-82000000D03*
D11*
X70225000Y-87080000D03*
D10*
X67685000Y-82000000D03*
D13*
X66475000Y-87080000D03*
X80325000Y-84540000D03*
%TD*%
D10*
%TO.C,SW15*%
X154137731Y-92151836D03*
D11*
X152867731Y-94691836D03*
D12*
X149057731Y-92151836D03*
D11*
X146517731Y-97231836D03*
D10*
X143977731Y-92151836D03*
D13*
X142767731Y-97231836D03*
X156617731Y-94691836D03*
%TD*%
D10*
%TO.C,SW21*%
X194883208Y-120600237D03*
D11*
X192962287Y-122691782D03*
D12*
X189999999Y-119199999D03*
D11*
X186158157Y-123383090D03*
D10*
X185116790Y-117799761D03*
D16*
X182553425Y-122349449D03*
X196567019Y-123725422D03*
%TD*%
D10*
%TO.C,SW1*%
X77835000Y-62860000D03*
D11*
X76565000Y-65400000D03*
D12*
X72755000Y-62860000D03*
D11*
X70215000Y-67940000D03*
D10*
X67675000Y-62860000D03*
D13*
X66465000Y-67940000D03*
X80315000Y-65400000D03*
%TD*%
D10*
%TO.C,SW20*%
X174830562Y-115506999D03*
D11*
X173219422Y-117845530D03*
D12*
X169800000Y-114800000D03*
D11*
X166577720Y-119477062D03*
D10*
X164769438Y-114093001D03*
D17*
X162864214Y-118955163D03*
X176932927Y-118367430D03*
%TD*%
D10*
%TO.C,SW3*%
X77800000Y-101060000D03*
D11*
X76530000Y-103600000D03*
D12*
X72720000Y-101060000D03*
D11*
X70180000Y-106140000D03*
D10*
X67640000Y-101060000D03*
D13*
X66430000Y-106140000D03*
X80280000Y-103600000D03*
%TD*%
D10*
%TO.C,SW12*%
X135064584Y-91041038D03*
D11*
X133794584Y-93581038D03*
D12*
X129984584Y-91041038D03*
D11*
X127444584Y-96121038D03*
D10*
X124904584Y-91041038D03*
D13*
X123694584Y-96121038D03*
X137544584Y-93581038D03*
%TD*%
D10*
%TO.C,SW13*%
X154142421Y-54009235D03*
D11*
X152872421Y-56549235D03*
D12*
X149062421Y-54009235D03*
D11*
X146522421Y-59089235D03*
D10*
X143982421Y-54009235D03*
D13*
X142772421Y-59089235D03*
X156622421Y-56549235D03*
%TD*%
D10*
%TO.C,SW17*%
X173196725Y-74055554D03*
D11*
X171926725Y-76595554D03*
D12*
X168116725Y-74055554D03*
D11*
X165576725Y-79135554D03*
D10*
X163036725Y-74055554D03*
D13*
X161826725Y-79135554D03*
X175676725Y-76595554D03*
%TD*%
D18*
%TO.C,C21*%
X146530000Y-84935000D03*
X146530000Y-86485000D03*
%TD*%
D19*
%TO.C,J3*%
X151030000Y-67400000D03*
X156110000Y-66384000D03*
X156110000Y-68416000D03*
D20*
X152300000Y-66765000D03*
X152300000Y-68035000D03*
X153570000Y-66765000D03*
X153570000Y-68035000D03*
X154840000Y-66765000D03*
X154840000Y-68035000D03*
%TD*%
D21*
%TO.C,C26*%
X171095000Y-69960000D03*
X172645000Y-69960000D03*
%TD*%
D22*
%TO.C,C19*%
X170975000Y-86700000D03*
X169425000Y-86700000D03*
%TD*%
D23*
%TO.C,C10*%
X132800000Y-84375000D03*
X132800000Y-82825000D03*
%TD*%
D18*
%TO.C,C1*%
X136270000Y-78835000D03*
X136270000Y-80385000D03*
%TD*%
D24*
%TO.C,J2*%
X179526513Y-109905616D03*
X179979715Y-110116822D03*
X180432917Y-110328029D03*
X180886119Y-110539235D03*
X181339320Y-110750441D03*
X181792522Y-110961647D03*
X182245724Y-111172854D03*
X182698926Y-111384060D03*
X183152128Y-111595266D03*
X183605329Y-111806473D03*
X184058531Y-112017679D03*
X184511733Y-112228885D03*
D25*
X187293912Y-110520184D03*
X179045638Y-106676230D03*
%TD*%
D26*
%TO.C,L7*%
X175907500Y-67370000D03*
X174332500Y-67370000D03*
%TD*%
D21*
%TO.C,C2*%
X171085000Y-71510000D03*
X172635000Y-71510000D03*
%TD*%
D23*
%TO.C,C20*%
X174370000Y-64335000D03*
X174370000Y-62785000D03*
%TD*%
D21*
%TO.C,C7*%
X149925000Y-86800000D03*
X151475000Y-86800000D03*
%TD*%
D26*
%TO.C,L6*%
X175907500Y-65840000D03*
X174332500Y-65840000D03*
%TD*%
D21*
%TO.C,C16*%
X153015000Y-87800000D03*
X154565000Y-87800000D03*
%TD*%
D27*
%TO.C,U2*%
X172160000Y-83850000D03*
X172160000Y-84500000D03*
X172160000Y-85150000D03*
X169960000Y-85150000D03*
X169960000Y-84500000D03*
X169960000Y-83850000D03*
%TD*%
D23*
%TO.C,C22*%
X139886827Y-97301166D03*
X139886827Y-95751166D03*
%TD*%
D28*
%TO.C,L5*%
X168590000Y-82502500D03*
X168590000Y-84077500D03*
%TD*%
D18*
%TO.C,C14*%
X148040000Y-84935000D03*
X148040000Y-86485000D03*
%TD*%
D22*
%TO.C,C5*%
X134785000Y-80420000D03*
X133235000Y-80420000D03*
%TD*%
D18*
%TO.C,C24*%
X164380000Y-47455000D03*
X164380000Y-49005000D03*
%TD*%
D22*
%TO.C,C25*%
X176395000Y-68950000D03*
X174845000Y-68950000D03*
%TD*%
D18*
%TO.C,C11*%
X134400000Y-85825000D03*
X134400000Y-87375000D03*
%TD*%
%TO.C,C27*%
X165030000Y-67795000D03*
X165030000Y-69345000D03*
%TD*%
%TO.C,C12*%
X131200000Y-85850000D03*
X131200000Y-87400000D03*
%TD*%
D29*
%TO.C,J1*%
X169590000Y-48470000D03*
X175370000Y-48470000D03*
D30*
X169280000Y-49590000D03*
X170080000Y-49590000D03*
D31*
X171230000Y-49590000D03*
X172230000Y-49590000D03*
X172730000Y-49590000D03*
X173730000Y-49590000D03*
D30*
X174880000Y-49590000D03*
X175680000Y-49590000D03*
X175680000Y-49590000D03*
X174880000Y-49590000D03*
D31*
X174230000Y-49590000D03*
X173230000Y-49590000D03*
X171730000Y-49590000D03*
X170730000Y-49590000D03*
D30*
X170080000Y-49590000D03*
X169280000Y-49590000D03*
D32*
X168160000Y-44790000D03*
D33*
X168160000Y-48990000D03*
D32*
X176800000Y-44790000D03*
D33*
X176800000Y-48990000D03*
%TD*%
D34*
%TO.C,Y2*%
X139989279Y-93969402D03*
X139989279Y-91569402D03*
X141889279Y-91569402D03*
X141889279Y-93969402D03*
%TD*%
D35*
%TO.C,TH1*%
X190190000Y-53220000D03*
X191840000Y-53220000D03*
%TD*%
D36*
%TO.C,D4*%
X162300000Y-47910000D03*
D37*
X162300000Y-49610000D03*
X160300000Y-49610000D03*
X160300000Y-47710000D03*
%TD*%
D38*
%TO.C,Y1*%
X156370000Y-85780000D03*
X158770000Y-85780000D03*
X158770000Y-87680000D03*
X156370000Y-87680000D03*
%TD*%
D39*
%TO.C,J5*%
X149780000Y-83470000D03*
D40*
X151305000Y-81995000D03*
X151305000Y-84945000D03*
%TD*%
D23*
%TO.C,C8*%
X141800000Y-74975000D03*
X141800000Y-73425000D03*
%TD*%
D41*
%TO.C,L2*%
X153882500Y-82610000D03*
X155457500Y-82610000D03*
%TD*%
D26*
%TO.C,L4*%
X147847500Y-83440000D03*
X146272500Y-83440000D03*
%TD*%
D18*
%TO.C,C3*%
X153950000Y-84115000D03*
X153950000Y-85665000D03*
%TD*%
%TO.C,C13*%
X132800000Y-85850000D03*
X132800000Y-87400000D03*
%TD*%
%TO.C,C6*%
X138400000Y-89825000D03*
X138400000Y-91375000D03*
%TD*%
D21*
%TO.C,C4*%
X155435000Y-84140000D03*
X156985000Y-84140000D03*
%TD*%
D28*
%TO.C,L3*%
X134400000Y-82812500D03*
X134400000Y-84387500D03*
%TD*%
D18*
%TO.C,C15*%
X165950000Y-47425000D03*
X165950000Y-48975000D03*
%TD*%
D42*
%TO.C,U3*%
X172860000Y-64320000D03*
X172860000Y-64820000D03*
X172860000Y-65320000D03*
X172860000Y-65820000D03*
X172860000Y-66320000D03*
X172860000Y-66820000D03*
X172860000Y-67320000D03*
X172860000Y-67820000D03*
D43*
X172160000Y-68520000D03*
X171660000Y-68520000D03*
X171160000Y-68520000D03*
X170660000Y-68520000D03*
X170160000Y-68520000D03*
X169660000Y-68520000D03*
X169160000Y-68520000D03*
X168660000Y-68520000D03*
D42*
X167960000Y-67820000D03*
X167960000Y-67320000D03*
X167960000Y-66820000D03*
X167960000Y-66320000D03*
X167960000Y-65820000D03*
X167960000Y-65320000D03*
X167960000Y-64820000D03*
X167960000Y-64320000D03*
D43*
X168660000Y-63620000D03*
X169160000Y-63620000D03*
X169660000Y-63620000D03*
X170160000Y-63620000D03*
X170660000Y-63620000D03*
X171160000Y-63620000D03*
X171660000Y-63620000D03*
X172160000Y-63620000D03*
D44*
X170410000Y-66070000D03*
%TD*%
D26*
%TO.C,L1*%
X155467500Y-81100000D03*
X153892500Y-81100000D03*
%TD*%
D18*
%TO.C,C17*%
X160552588Y-86171191D03*
X160552588Y-87721191D03*
%TD*%
D45*
%TO.C,R1*%
X166520000Y-68365000D03*
X166520000Y-70015000D03*
%TD*%
D46*
%TO.C,U1*%
X141814214Y-88181981D03*
X142167767Y-87828427D03*
X142521320Y-87474874D03*
X142874874Y-87121320D03*
X143228427Y-86767767D03*
X143581981Y-86414214D03*
X143935534Y-86060660D03*
X144289087Y-85707107D03*
X144642641Y-85353553D03*
X141107107Y-81110913D03*
X136687689Y-85176777D03*
X137041243Y-84469670D03*
X137748350Y-83762563D03*
X138101903Y-83409010D03*
X138455456Y-83055456D03*
X138809010Y-82701903D03*
X139162563Y-82348350D03*
X139516117Y-81994796D03*
X139869670Y-81641243D03*
X140753553Y-80757359D03*
X136157359Y-84646447D03*
X136510913Y-84292893D03*
X136864466Y-83939340D03*
X137218019Y-83585786D03*
X137571573Y-83232233D03*
X137925126Y-82878680D03*
X138278680Y-82525126D03*
X138632233Y-82171573D03*
X138985786Y-81818019D03*
X139339340Y-81464466D03*
X139692893Y-81110913D03*
X140046447Y-80757359D03*
X140046447Y-89242641D03*
X140576777Y-88712311D03*
X140930330Y-88358757D03*
X141283883Y-88005204D03*
X141637437Y-87651650D03*
X141990990Y-87298097D03*
X142344544Y-86944544D03*
X142698097Y-86590990D03*
X143051650Y-86237437D03*
X143405204Y-85883883D03*
X144642641Y-84646447D03*
X139692893Y-88889087D03*
X139869670Y-88358757D03*
X143758757Y-84469670D03*
X143935534Y-83939340D03*
D47*
X140400000Y-85000000D03*
D46*
X139516117Y-88005204D03*
X143405204Y-84116117D03*
X138985786Y-88181981D03*
X139162563Y-87651650D03*
X143051650Y-83762563D03*
X138632233Y-87828427D03*
X143228427Y-83232233D03*
X138809010Y-87298097D03*
X138278680Y-87474874D03*
X142874874Y-82878680D03*
X138455456Y-86944544D03*
X137925126Y-87121320D03*
X142521320Y-82525126D03*
X138101903Y-86590990D03*
X141990990Y-82701903D03*
X137571573Y-86767767D03*
X142167767Y-82171573D03*
X137748350Y-86237437D03*
X141637437Y-82348350D03*
X137218019Y-86414214D03*
X141814214Y-81818019D03*
X141283883Y-81994796D03*
X136864466Y-86060660D03*
X141460660Y-81464466D03*
X137041243Y-85530330D03*
X140930330Y-81641243D03*
%TD*%
D23*
%TO.C,C9*%
X131200000Y-84400000D03*
X131200000Y-82850000D03*
%TD*%
D22*
%TO.C,C23*%
X145077408Y-90200000D03*
X143527408Y-90200000D03*
%TD*%
D48*
%TO.C,R2*%
X169665000Y-69960000D03*
X168015000Y-69960000D03*
%TD*%
D18*
%TO.C,C18*%
X173840000Y-83745000D03*
X173840000Y-85295000D03*
%TD*%
M02*
