<svg width="745" height="65" viewBox="0 0 745 65" fill="none" xmlns="http://www.w3.org/2000/svg">
<rect width="745" height="65" fill="white"/>
<g filter="url(#filter0_i_1_24)">
<path d="M31.168 33.96C33.7707 34.5147 35.8613 35.816 37.44 37.864C39.0187 39.8693 39.808 42.1733 39.808 44.776C39.808 48.5307 38.4853 51.5173 35.84 53.736C33.2373 55.912 29.5893 57 24.896 57H3.968V12.072H24.192C28.7573 12.072 32.32 13.1173 34.88 15.208C37.4827 17.2987 38.784 20.136 38.784 23.72C38.784 26.3653 38.08 28.5627 36.672 30.312C35.3067 32.0613 33.472 33.2773 31.168 33.96ZM14.912 30.248H22.08C23.872 30.248 25.2373 29.864 26.176 29.096C27.1573 28.2853 27.648 27.112 27.648 25.576C27.648 24.04 27.1573 22.8667 26.176 22.056C25.2373 21.2453 23.872 20.84 22.08 20.84H14.912V30.248ZM22.976 48.168C24.8107 48.168 26.2187 47.7627 27.2 46.952C28.224 46.0987 28.736 44.8827 28.736 43.304C28.736 41.7253 28.2027 40.488 27.136 39.592C26.112 38.696 24.6827 38.248 22.848 38.248H14.912V48.168H22.976ZM79.8195 38.568C79.8195 39.592 79.7555 40.6587 79.6275 41.768H54.8595C55.0302 43.9867 55.7342 45.6933 56.9715 46.888C58.2515 48.04 59.8088 48.616 61.6435 48.616C64.3742 48.616 66.2728 47.464 67.3395 45.16H78.9875C78.3902 47.5067 77.3022 49.6187 75.7235 51.496C74.1875 53.3733 72.2462 54.8453 69.8995 55.912C67.5528 56.9787 64.9288 57.512 62.0275 57.512C58.5288 57.512 55.4142 56.7653 52.6835 55.272C49.9528 53.7787 47.8195 51.6453 46.2835 48.872C44.7475 46.0987 43.9795 42.856 43.9795 39.144C43.9795 35.432 44.7262 32.1893 46.2195 29.416C47.7555 26.6427 49.8888 24.5093 52.6195 23.016C55.3502 21.5227 58.4862 20.776 62.0275 20.776C65.4835 20.776 68.5555 21.5013 71.2435 22.952C73.9315 24.4027 76.0222 26.472 77.5155 29.16C79.0515 31.848 79.8195 34.984 79.8195 38.568ZM68.6195 35.688C68.6195 33.8107 67.9795 32.3173 66.6995 31.208C65.4195 30.0987 63.8195 29.544 61.8995 29.544C60.0648 29.544 58.5075 30.0773 57.2275 31.144C55.9902 32.2107 55.2222 33.7253 54.9235 35.688H68.6195ZM107.353 20.904C111.534 20.904 114.862 22.2693 117.337 25C119.854 27.688 121.113 31.4 121.113 36.136V57H110.233V37.608C110.233 35.2187 109.614 33.3627 108.377 32.04C107.14 30.7173 105.476 30.056 103.385 30.056C101.294 30.056 99.6303 30.7173 98.393 32.04C97.1557 33.3627 96.537 35.2187 96.537 37.608V57H85.593V21.288H96.537V26.024C97.6463 24.4453 99.1397 23.208 101.017 22.312C102.894 21.3733 105.006 20.904 107.353 20.904ZM155.918 33.96C158.521 34.5147 160.611 35.816 162.19 37.864C163.769 39.8693 164.558 42.1733 164.558 44.776C164.558 48.5307 163.235 51.5173 160.59 53.736C157.987 55.912 154.339 57 149.646 57H128.718V12.072H148.942C153.507 12.072 157.07 13.1173 159.63 15.208C162.233 17.2987 163.534 20.136 163.534 23.72C163.534 26.3653 162.83 28.5627 161.422 30.312C160.057 32.0613 158.222 33.2773 155.918 33.96ZM139.662 30.248H146.83C148.622 30.248 149.987 29.864 150.926 29.096C151.907 28.2853 152.398 27.112 152.398 25.576C152.398 24.04 151.907 22.8667 150.926 22.056C149.987 21.2453 148.622 20.84 146.83 20.84H139.662V30.248ZM147.726 48.168C149.561 48.168 150.969 47.7627 151.95 46.952C152.974 46.0987 153.486 44.8827 153.486 43.304C153.486 41.7253 152.953 40.488 151.886 39.592C150.862 38.696 149.433 38.248 147.598 38.248H139.662V48.168H147.726ZM187.161 57.512C183.663 57.512 180.505 56.7653 177.689 55.272C174.916 53.7787 172.719 51.6453 171.097 48.872C169.519 46.0987 168.729 42.856 168.729 39.144C168.729 35.4747 169.54 32.2533 171.161 29.48C172.783 26.664 175.001 24.5093 177.817 23.016C180.633 21.5227 183.791 20.776 187.289 20.776C190.788 20.776 193.945 21.5227 196.761 23.016C199.577 24.5093 201.796 26.664 203.417 29.48C205.039 32.2533 205.849 35.4747 205.849 39.144C205.849 42.8133 205.017 46.056 203.353 48.872C201.732 51.6453 199.492 53.7787 196.633 55.272C193.817 56.7653 190.66 57.512 187.161 57.512ZM187.161 48.04C189.252 48.04 191.023 47.272 192.473 45.736C193.967 44.2 194.713 42.0027 194.713 39.144C194.713 36.2853 193.988 34.088 192.537 32.552C191.129 31.016 189.38 30.248 187.289 30.248C185.156 30.248 183.385 31.016 181.977 32.552C180.569 34.0453 179.865 36.2427 179.865 39.144C179.865 42.0027 180.548 44.2 181.913 45.736C183.321 47.272 185.071 48.04 187.161 48.04ZM209.479 39.08C209.479 35.4107 210.162 32.1893 211.527 29.416C212.935 26.6427 214.834 24.5093 217.223 23.016C219.613 21.5227 222.279 20.776 225.223 20.776C227.741 20.776 229.938 21.288 231.815 22.312C233.735 23.336 235.207 24.68 236.231 26.344V21.288H247.175V57H236.231V51.944C235.165 53.608 233.671 54.952 231.751 55.976C229.874 57 227.677 57.512 225.159 57.512C222.258 57.512 219.613 56.7653 217.223 55.272C214.834 53.736 212.935 51.5813 211.527 48.808C210.162 45.992 209.479 42.7493 209.479 39.08ZM236.231 39.144C236.231 36.4133 235.463 34.2587 233.927 32.68C232.434 31.1013 230.599 30.312 228.423 30.312C226.247 30.312 224.391 31.1013 222.855 32.68C221.362 34.216 220.615 36.3493 220.615 39.08C220.615 41.8107 221.362 43.9867 222.855 45.608C224.391 47.1867 226.247 47.976 228.423 47.976C230.599 47.976 232.434 47.1867 233.927 45.608C235.463 44.0293 236.231 41.8747 236.231 39.144ZM266.037 27.24C267.317 25.2773 268.917 23.7413 270.837 22.632C272.757 21.48 274.89 20.904 277.237 20.904V32.488H274.229C271.498 32.488 269.45 33.0853 268.085 34.28C266.72 35.432 266.037 37.48 266.037 40.424V57H255.093V21.288H266.037V27.24ZM280.292 39.08C280.292 35.4107 280.975 32.1893 282.34 29.416C283.748 26.6427 285.647 24.5093 288.036 23.016C290.425 21.5227 293.092 20.776 296.036 20.776C298.383 20.776 300.516 21.2667 302.436 22.248C304.399 23.2293 305.935 24.552 307.044 26.216V9.64H317.988V57H307.044V51.88C306.02 53.5867 304.548 54.952 302.628 55.976C300.751 57 298.553 57.512 296.036 57.512C293.092 57.512 290.425 56.7653 288.036 55.272C285.647 53.736 283.748 51.5813 282.34 48.808C280.975 45.992 280.292 42.7493 280.292 39.08ZM307.044 39.144C307.044 36.4133 306.276 34.2587 304.74 32.68C303.247 31.1013 301.412 30.312 299.236 30.312C297.06 30.312 295.204 31.1013 293.668 32.68C292.175 34.216 291.428 36.3493 291.428 39.08C291.428 41.8107 292.175 43.9867 293.668 45.608C295.204 47.1867 297.06 47.976 299.236 47.976C301.412 47.976 303.247 47.1867 304.74 45.608C306.276 44.0293 307.044 41.8747 307.044 39.144ZM323.665 11.816H342.097V18.152H336.785L336.849 34.28H328.913L328.977 18.152H323.665V11.816ZM375.569 11.816V34.28H368.337L368.145 21.416L362.897 34.28H357.585L352.337 20.776V34.28H345.361V11.816H355.985L360.529 24.68L365.777 11.816H375.569ZM446.848 12.072V57H435.904V30.056L425.856 57H417.024L406.912 29.992V57H395.968V12.072H408.896L421.504 43.176L433.984 12.072H446.848ZM480.766 57L465.662 37.16V57H454.718V12.072H465.662V31.784L480.638 12.072H493.502L476.094 34.088L494.142 57H480.766ZM504.463 57.512C502.543 57.512 500.964 56.9573 499.727 55.848C498.532 54.696 497.935 53.288 497.935 51.624C497.935 49.9173 498.532 48.488 499.727 47.336C500.964 46.184 502.543 45.608 504.463 45.608C506.34 45.608 507.876 46.184 509.071 47.336C510.308 48.488 510.927 49.9173 510.927 51.624C510.927 53.288 510.308 54.696 509.071 55.848C507.876 56.9573 506.34 57.512 504.463 57.512ZM515.165 20.456V10.28H532.893V57H521.501V20.456H515.165ZM571.862 12.072C576.598 12.072 580.737 13.0107 584.278 14.888C587.82 16.7653 590.55 19.4107 592.47 22.824C594.433 26.1947 595.414 30.0987 595.414 34.536C595.414 38.9307 594.433 42.8347 592.47 46.248C590.55 49.6613 587.798 52.3067 584.214 54.184C580.673 56.0613 576.556 57 571.862 57H555.03V12.072H571.862ZM571.158 47.528C575.297 47.528 578.518 46.3973 580.822 44.136C583.126 41.8747 584.278 38.6747 584.278 34.536C584.278 30.3973 583.126 27.176 580.822 24.872C578.518 22.568 575.297 21.416 571.158 21.416H565.974V47.528H571.158ZM612.474 20.84V29.928H627.13V38.376H612.474V48.232H629.05V57H601.53V12.072H629.05V20.84H612.474ZM678.331 12.072L662.395 57H648.699L632.763 12.072H644.411L655.547 45.992L666.747 12.072H678.331ZM693.849 20.84V29.928H708.505V38.376H693.849V48.232H710.425V57H682.905V12.072H710.425V20.84H693.849ZM728.474 48.552H742.81V57H717.53V12.072H728.474V48.552Z" fill="#414042"/>
</g>
<defs>
<filter id="filter0_i_1_24" x="3.968" y="9.64" width="738.842" height="51.872" filterUnits="userSpaceOnUse" color-interpolation-filters="sRGB">
<feFlood flood-opacity="0" result="BackgroundImageFix"/>
<feBlend mode="normal" in="SourceGraphic" in2="BackgroundImageFix" result="shape"/>
<feColorMatrix in="SourceAlpha" type="matrix" values="0 0 0 0 0 0 0 0 0 0 0 0 0 0 0 0 0 0 127 0" result="hardAlpha"/>
<feOffset dy="4"/>
<feGaussianBlur stdDeviation="2"/>
<feComposite in2="hardAlpha" operator="arithmetic" k2="-1" k3="1"/>
<feColorMatrix type="matrix" values="0 0 0 0 0 0 0 0 0 0 0 0 0 0 0 0 0 0 0.25 0"/>
<feBlend mode="normal" in2="shape" result="effect1_innerShadow_1_24"/>
</filter>
</defs>
</svg>
