<svg width="510" height="96" viewBox="0 0 510 96" fill="none" xmlns="http://www.w3.org/2000/svg">
<rect width="510" height="96" fill="white"/>
<g filter="url(#filter0_i_1_23)">
<path d="M32.96 24.432C37.3547 24.432 41.2587 25.4133 44.672 27.376C48.0853 29.296 50.7307 32.0053 52.608 35.504C54.528 39.0027 55.488 42.9707 55.488 47.408C55.488 51.8453 54.528 55.8133 52.608 59.312C50.7307 62.8107 48.0853 65.5413 44.672 67.504C41.2587 69.4667 37.3547 70.448 32.96 70.448C28.5653 70.448 24.6613 69.4667 21.248 67.504C17.8347 65.5413 15.168 62.8107 13.248 59.312C11.3707 55.8133 10.432 51.8453 10.432 47.408C10.432 42.9707 11.3707 39.0027 13.248 35.504C15.168 32.0053 17.8347 29.296 21.248 27.376C24.6613 25.4133 28.5653 24.432 32.96 24.432ZM32.96 28.016C29.1627 28.016 25.856 28.8053 23.04 30.384C20.224 31.9627 18.048 34.224 16.512 37.168C15.0187 40.0693 14.272 43.4827 14.272 47.408C14.272 51.2907 15.0187 54.704 16.512 57.648C18.048 60.592 20.224 62.8747 23.04 64.496C25.856 66.0747 29.1627 66.864 32.96 66.864C36.7573 66.864 40.064 66.0747 42.88 64.496C45.696 62.8747 47.8507 60.592 49.344 57.648C50.88 54.704 51.648 51.2907 51.648 47.408C51.648 43.4827 50.88 40.0693 49.344 37.168C47.8507 34.224 45.696 31.9627 42.88 30.384C40.064 28.8053 36.7573 28.016 32.96 28.016ZM33.024 33.008C30.2933 33.008 27.84 33.6053 25.664 34.8C23.5307 35.952 21.8453 37.616 20.608 39.792C19.4133 41.968 18.816 44.5067 18.816 47.408C18.816 50.3093 19.4133 52.848 20.608 55.024C21.8453 57.2 23.5307 58.8853 25.664 60.08C27.84 61.232 30.2933 61.808 33.024 61.808C36.3947 61.808 39.296 60.848 41.728 58.928C44.16 57.008 45.7173 54.4693 46.4 51.312H36.992C36.2667 53.4027 34.8373 54.448 32.704 54.448C31.1253 54.448 29.888 53.8507 28.992 52.656C28.096 51.4613 27.648 49.712 27.648 47.408C27.648 45.104 28.096 43.3547 28.992 42.16C29.888 40.9653 31.1253 40.368 32.704 40.368C33.7707 40.368 34.6667 40.6453 35.392 41.2C36.16 41.7547 36.6933 42.5227 36.992 43.504H46.4C45.7173 40.2613 44.16 37.7013 41.728 35.824C39.3387 33.9467 36.4373 33.008 33.024 33.008ZM89.043 46.96C91.6457 47.5147 93.7363 48.816 95.315 50.864C96.8937 52.8693 97.683 55.1733 97.683 57.776C97.683 61.5307 96.3603 64.5173 93.715 66.736C91.1123 68.912 87.4643 70 82.771 70H61.843V25.072H82.067C86.6323 25.072 90.195 26.1173 92.755 28.208C95.3577 30.2987 96.659 33.136 96.659 36.72C96.659 39.3653 95.955 41.5627 94.547 43.312C93.1817 45.0613 91.347 46.2773 89.043 46.96ZM72.787 43.248H79.955C81.747 43.248 83.1123 42.864 84.051 42.096C85.0323 41.2853 85.523 40.112 85.523 38.576C85.523 37.04 85.0323 35.8667 84.051 35.056C83.1123 34.2453 81.747 33.84 79.955 33.84H72.787V43.248ZM80.851 61.168C82.6857 61.168 84.0937 60.7627 85.075 59.952C86.099 59.0987 86.611 57.8827 86.611 56.304C86.611 54.7253 86.0777 53.488 85.011 52.592C83.987 51.696 82.5577 51.248 80.723 51.248H72.787V61.168H80.851ZM114.974 33.84V42.928H129.63V51.376H114.974V61.232H131.55V70H104.03V25.072H131.55V33.84H114.974ZM178.847 70H167.903L149.599 42.288V70H138.655V25.072H149.599L167.903 52.912V25.072H178.847V70ZM197.724 61.552H212.06V70H186.78V25.072H197.724V61.552ZM245.248 62.064H228.48L225.792 70H214.336L230.592 25.072H243.264L259.52 70H247.936L245.248 62.064ZM242.432 53.616L236.864 37.168L231.36 53.616H242.432ZM291.668 46.96C294.271 47.5147 296.361 48.816 297.94 50.864C299.519 52.8693 300.308 55.1733 300.308 57.776C300.308 61.5307 298.985 64.5173 296.34 66.736C293.737 68.912 290.089 70 285.396 70H264.468V25.072H284.692C289.257 25.072 292.82 26.1173 295.38 28.208C297.983 30.2987 299.284 33.136 299.284 36.72C299.284 39.3653 298.58 41.5627 297.172 43.312C295.807 45.0613 293.972 46.2773 291.668 46.96ZM275.412 43.248H282.58C284.372 43.248 285.737 42.864 286.676 42.096C287.657 41.2853 288.148 40.112 288.148 38.576C288.148 37.04 287.657 35.8667 286.676 35.056C285.737 34.2453 284.372 33.84 282.58 33.84H275.412V43.248ZM283.476 61.168C285.311 61.168 286.719 60.7627 287.7 59.952C288.724 59.0987 289.236 57.8827 289.236 56.304C289.236 54.7253 288.703 53.488 287.636 52.592C286.612 51.696 285.183 51.248 283.348 51.248H275.412V61.168H283.476ZM322.911 70.448C319.626 70.448 316.682 69.9147 314.079 68.848C311.477 67.7813 309.386 66.2027 307.807 64.112C306.271 62.0213 305.461 59.504 305.375 56.56H317.023C317.194 58.224 317.77 59.504 318.751 60.4C319.733 61.2533 321.013 61.68 322.591 61.68C324.213 61.68 325.493 61.3173 326.431 60.592C327.37 59.824 327.839 58.7787 327.839 57.456C327.839 56.3467 327.455 55.4293 326.687 54.704C325.962 53.9787 325.045 53.3813 323.935 52.912C322.869 52.4427 321.333 51.9093 319.327 51.312C316.426 50.416 314.058 49.52 312.223 48.624C310.389 47.728 308.81 46.4053 307.487 44.656C306.165 42.9067 305.503 40.624 305.503 37.808C305.503 33.6267 307.018 30.3627 310.047 28.016C313.077 25.6267 317.023 24.432 321.887 24.432C326.837 24.432 330.826 25.6267 333.855 28.016C336.885 30.3627 338.506 33.648 338.719 37.872H326.879C326.794 36.4213 326.261 35.2907 325.279 34.48C324.298 33.6267 323.039 33.2 321.503 33.2C320.181 33.2 319.114 33.5627 318.303 34.288C317.493 34.9707 317.087 35.9733 317.087 37.296C317.087 38.7467 317.77 39.8773 319.135 40.688C320.501 41.4987 322.634 42.3733 325.535 43.312C328.437 44.2933 330.783 45.232 332.575 46.128C334.41 47.024 335.989 48.3253 337.311 50.032C338.634 51.7387 339.295 53.936 339.295 56.624C339.295 59.184 338.634 61.5093 337.311 63.6C336.031 65.6907 334.154 67.3547 331.679 68.592C329.205 69.8293 326.282 70.448 322.911 70.448ZM358.121 61.232C359.572 60.08 360.233 59.5467 360.105 59.632C364.286 56.176 367.572 53.3387 369.961 51.12C372.393 48.9013 374.441 46.576 376.105 44.144C377.769 41.712 378.601 39.344 378.601 37.04C378.601 35.2907 378.196 33.9253 377.385 32.944C376.574 31.9627 375.358 31.472 373.737 31.472C372.116 31.472 370.836 32.0907 369.897 33.328C369.001 34.5227 368.553 36.2293 368.553 38.448H357.993C358.078 34.8213 358.846 31.792 360.297 29.36C361.79 26.928 363.732 25.136 366.121 23.984C368.553 22.832 371.241 22.256 374.185 22.256C379.262 22.256 383.081 23.5573 385.641 26.16C388.244 28.7627 389.545 32.1547 389.545 36.336C389.545 40.9013 387.988 45.1467 384.873 49.072C381.758 52.9547 377.79 56.752 372.969 60.464H390.249V69.36H358.121V61.232ZM395.067 46C395.067 38.6613 396.475 32.88 399.291 28.656C402.15 24.432 406.737 22.32 413.051 22.32C419.366 22.32 423.931 24.432 426.747 28.656C429.606 32.88 431.035 38.6613 431.035 46C431.035 53.424 429.606 59.248 426.747 63.472C423.931 67.696 419.366 69.808 413.051 69.808C406.737 69.808 402.15 67.696 399.291 63.472C396.475 59.248 395.067 53.424 395.067 46ZM420.283 46C420.283 41.6907 419.814 38.384 418.875 36.08C417.937 33.7333 415.995 32.56 413.051 32.56C410.107 32.56 408.166 33.7333 407.227 36.08C406.289 38.384 405.819 41.6907 405.819 46C405.819 48.9013 405.99 51.312 406.331 53.232C406.673 55.1093 407.355 56.6453 408.379 57.84C409.446 58.992 411.003 59.568 413.051 59.568C415.099 59.568 416.635 58.992 417.659 57.84C418.726 56.6453 419.43 55.1093 419.771 53.232C420.113 51.312 420.283 48.9013 420.283 46ZM436.433 61.232C437.884 60.08 438.545 59.5467 438.417 59.632C442.599 56.176 445.884 53.3387 448.273 51.12C450.705 48.9013 452.753 46.576 454.417 44.144C456.081 41.712 456.913 39.344 456.913 37.04C456.913 35.2907 456.508 33.9253 455.697 32.944C454.887 31.9627 453.671 31.472 452.049 31.472C450.428 31.472 449.148 32.0907 448.209 33.328C447.313 34.5227 446.865 36.2293 446.865 38.448H436.305C436.391 34.8213 437.159 31.792 438.609 29.36C440.103 26.928 442.044 25.136 444.433 23.984C446.865 22.832 449.553 22.256 452.497 22.256C457.575 22.256 461.393 23.5573 463.953 26.16C466.556 28.7627 467.857 32.1547 467.857 36.336C467.857 40.9013 466.3 45.1467 463.185 49.072C460.071 52.9547 456.103 56.752 451.281 60.464H468.561V69.36H436.433V61.232ZM473.764 36.464C473.935 31.8987 475.428 28.3787 478.244 25.904C481.06 23.4293 484.879 22.192 489.7 22.192C492.9 22.192 495.631 22.7467 497.892 23.856C500.196 24.9653 501.924 26.48 503.076 28.4C504.271 30.32 504.868 32.4747 504.868 34.864C504.868 37.68 504.164 39.984 502.756 41.776C501.348 43.5253 499.705 44.72 497.828 45.36V45.616C500.26 46.4267 502.18 47.7707 503.588 49.648C504.996 51.5253 505.7 53.936 505.7 56.88C505.7 59.5253 505.081 61.872 503.844 63.92C502.649 65.9253 500.879 67.504 498.532 68.656C496.228 69.808 493.476 70.384 490.276 70.384C485.156 70.384 481.06 69.1253 477.988 66.608C474.959 64.0907 473.359 60.2933 473.188 55.216H483.812C483.855 57.0933 484.388 58.5867 485.412 59.696C486.436 60.7627 487.929 61.296 489.892 61.296C491.556 61.296 492.836 60.8267 493.732 59.888C494.671 58.9067 495.14 57.6267 495.14 56.048C495.14 54 494.479 52.528 493.156 51.632C491.876 50.6933 489.807 50.224 486.948 50.224H484.9V41.328H486.948C489.124 41.328 490.873 40.9653 492.196 40.24C493.561 39.472 494.244 38.128 494.244 36.208C494.244 34.672 493.817 33.4773 492.964 32.624C492.111 31.7707 490.937 31.344 489.444 31.344C487.823 31.344 486.607 31.8347 485.796 32.816C485.028 33.7973 484.58 35.0133 484.452 36.464H473.764Z" fill="#414042"/>
</g>
<defs>
<filter id="filter0_i_1_23" x="10.432" y="22.192" width="495.268" height="52.256" filterUnits="userSpaceOnUse" color-interpolation-filters="sRGB">
<feFlood flood-opacity="0" result="BackgroundImageFix"/>
<feBlend mode="normal" in="SourceGraphic" in2="BackgroundImageFix" result="shape"/>
<feColorMatrix in="SourceAlpha" type="matrix" values="0 0 0 0 0 0 0 0 0 0 0 0 0 0 0 0 0 0 127 0" result="hardAlpha"/>
<feOffset dy="4"/>
<feGaussianBlur stdDeviation="2"/>
<feComposite in2="hardAlpha" operator="arithmetic" k2="-1" k3="1"/>
<feColorMatrix type="matrix" values="0 0 0 0 0 0 0 0 0 0 0 0 0 0 0 0 0 0 0.25 0"/>
<feBlend mode="normal" in2="shape" result="effect1_innerShadow_1_23"/>
</filter>
</defs>
</svg>
