<svg width="309" height="167" viewBox="0 0 309 167" fill="none" xmlns="http://www.w3.org/2000/svg">
<rect width="309" height="167" fill="#F5F5F5"/>
<path d="M336 -89H-39V286H336V-89Z" fill="white"/>
<g opacity="0.1">
<path opacity="0.1" d="M239.97 -63.1603V268.626" stroke="#20263C" stroke-miterlimit="10" stroke-dasharray="5.77 5.77"/>
</g>
<g filter="url(#filter0_i_0_1)">
<path d="M75.3221 33.4803L98.3596 46.7836L110.041 40.0582L75.3221 20L17.3303 53.509L28.9522 60.2344L75.3221 33.4803Z" fill="#414042"/>
</g>
<g filter="url(#filter1_i_0_1)">
<path d="M121.663 46.7836L75.3224 73.5377L52.285 60.2344L40.6335 66.9598L75.3224 86.9885L133.344 53.509L121.663 46.7836Z" fill="#414042"/>
</g>
<g filter="url(#filter2_i_0_1)">
<path d="M26.6515 91.7969L15 85.0715V125.129L72.9918 158.638V145.187L26.6515 118.404V91.7969Z" fill="#414042"/>
</g>
<g filter="url(#filter3_i_0_1)">
<path d="M15 71.6201L61.3404 98.3742V124.981L72.9918 131.736V91.6488L15 58.1693V71.6201Z" fill="#414042"/>
</g>
<g filter="url(#filter4_i_0_1)">
<path d="M112.371 85.0712V71.6204L77.6527 91.6491V158.638L89.3042 151.912V98.3745L112.371 85.0712Z" fill="#414042"/>
</g>
<g filter="url(#filter5_i_0_1)">
<path d="M123.993 64.8947V118.403L100.956 131.736V145.187L135.674 125.128V58.1693L123.993 64.8947Z" fill="#414042"/>
</g>
<g filter="url(#filter6_i_0_1)">
<path d="M154.912 117.552H169.248V126H143.968V81.072H154.912V117.552ZM202.436 118.064H185.668L182.98 126H171.524L187.78 81.072H200.452L216.708 126H205.124L202.436 118.064ZM199.62 109.616L194.052 93.168L188.548 109.616H199.62ZM248.856 102.96C251.458 103.515 253.549 104.816 255.128 106.864C256.706 108.869 257.496 111.173 257.496 113.776C257.496 117.531 256.173 120.517 253.528 122.736C250.925 124.912 247.277 126 242.584 126H221.656V81.072H241.88C246.445 81.072 250.008 82.1173 252.568 84.208C255.17 86.2987 256.472 89.136 256.472 92.72C256.472 95.3653 255.768 97.5627 254.36 99.312C252.994 101.061 251.16 102.277 248.856 102.96ZM232.6 99.248H239.768C241.56 99.248 242.925 98.864 243.864 98.096C244.845 97.2853 245.336 96.112 245.336 94.576C245.336 93.04 244.845 91.8667 243.864 91.056C242.925 90.2453 241.56 89.84 239.768 89.84H232.6V99.248ZM240.664 117.168C242.498 117.168 243.906 116.763 244.888 115.952C245.912 115.099 246.424 113.883 246.424 112.304C246.424 110.725 245.89 109.488 244.824 108.592C243.8 107.696 242.37 107.248 240.536 107.248H232.6V117.168H240.664ZM280.099 126.448C276.814 126.448 273.87 125.915 271.267 124.848C268.664 123.781 266.574 122.203 264.995 120.112C263.459 118.021 262.648 115.504 262.563 112.56H274.211C274.382 114.224 274.958 115.504 275.939 116.4C276.92 117.253 278.2 117.68 279.779 117.68C281.4 117.68 282.68 117.317 283.619 116.592C284.558 115.824 285.027 114.779 285.027 113.456C285.027 112.347 284.643 111.429 283.875 110.704C283.15 109.979 282.232 109.381 281.123 108.912C280.056 108.443 278.52 107.909 276.515 107.312C273.614 106.416 271.246 105.52 269.411 104.624C267.576 103.728 265.998 102.405 264.675 100.656C263.352 98.9067 262.691 96.624 262.691 93.808C262.691 89.6267 264.206 86.3627 267.235 84.016C270.264 81.6267 274.211 80.432 279.075 80.432C284.024 80.432 288.014 81.6267 291.043 84.016C294.072 86.3627 295.694 89.648 295.907 93.872H284.067C283.982 92.4213 283.448 91.2907 282.467 90.48C281.486 89.6267 280.227 89.2 278.691 89.2C277.368 89.2 276.302 89.5627 275.491 90.288C274.68 90.9707 274.275 91.9733 274.275 93.296C274.275 94.7467 274.958 95.8773 276.323 96.688C277.688 97.4987 279.822 98.3733 282.723 99.312C285.624 100.293 287.971 101.232 289.763 102.128C291.598 103.024 293.176 104.325 294.499 106.032C295.822 107.739 296.483 109.936 296.483 112.624C296.483 115.184 295.822 117.509 294.499 119.6C293.219 121.691 291.342 123.355 288.867 124.592C286.392 125.829 283.47 126.448 280.099 126.448Z" fill="#414042"/>
</g>
<g filter="url(#filter7_i_0_1)">
<path d="M171.168 39.96C173.771 40.5147 175.861 41.816 177.44 43.864C179.019 45.8693 179.808 48.1733 179.808 50.776C179.808 54.5307 178.485 57.5173 175.84 59.736C173.237 61.912 169.589 63 164.896 63H143.968V18.072H164.192C168.757 18.072 172.32 19.1173 174.88 21.208C177.483 23.2987 178.784 26.136 178.784 29.72C178.784 32.3653 178.08 34.5627 176.672 36.312C175.307 38.0613 173.472 39.2773 171.168 39.96ZM154.912 36.248H162.08C163.872 36.248 165.237 35.864 166.176 35.096C167.157 34.2853 167.648 33.112 167.648 31.576C167.648 30.04 167.157 28.8667 166.176 28.056C165.237 27.2453 163.872 26.84 162.08 26.84H154.912V36.248ZM162.976 54.168C164.811 54.168 166.219 53.7627 167.2 52.952C168.224 52.0987 168.736 50.8827 168.736 49.304C168.736 47.7253 168.203 46.488 167.136 45.592C166.112 44.696 164.683 44.248 162.848 44.248H154.912V54.168H162.976ZM197.099 26.84V35.928H211.755V44.376H197.099V54.232H213.675V63H186.155V18.072H213.675V26.84H197.099ZM260.972 63H250.028L231.724 35.288V63H220.78V18.072H231.724L250.028 45.912V18.072H260.972V63Z" fill="#414042"/>
</g>
<defs>
<filter id="filter0_i_0_1" x="17.3303" y="20" width="92.7102" height="45.2344" filterUnits="userSpaceOnUse" color-interpolation-filters="sRGB">
<feFlood flood-opacity="0" result="BackgroundImageFix"/>
<feBlend mode="normal" in="SourceGraphic" in2="BackgroundImageFix" result="shape"/>
<feColorMatrix in="SourceAlpha" type="matrix" values="0 0 0 0 0 0 0 0 0 0 0 0 0 0 0 0 0 0 127 0" result="hardAlpha"/>
<feOffset dy="9"/>
<feGaussianBlur stdDeviation="2.5"/>
<feComposite in2="hardAlpha" operator="arithmetic" k2="-1" k3="1"/>
<feColorMatrix type="matrix" values="0 0 0 0 0 0 0 0 0 0 0 0 0 0 0 0 0 0 0.52 0"/>
<feBlend mode="normal" in2="shape" result="effect1_innerShadow_0_1"/>
</filter>
<filter id="filter1_i_0_1" x="40.6335" y="46.7836" width="92.7102" height="45.2049" filterUnits="userSpaceOnUse" color-interpolation-filters="sRGB">
<feFlood flood-opacity="0" result="BackgroundImageFix"/>
<feBlend mode="normal" in="SourceGraphic" in2="BackgroundImageFix" result="shape"/>
<feColorMatrix in="SourceAlpha" type="matrix" values="0 0 0 0 0 0 0 0 0 0 0 0 0 0 0 0 0 0 127 0" result="hardAlpha"/>
<feOffset dy="9"/>
<feGaussianBlur stdDeviation="2.5"/>
<feComposite in2="hardAlpha" operator="arithmetic" k2="-1" k3="1"/>
<feColorMatrix type="matrix" values="0 0 0 0 0 0 0 0 0 0 0 0 0 0 0 0 0 0 0.52 0"/>
<feBlend mode="normal" in2="shape" result="effect1_innerShadow_0_1"/>
</filter>
<filter id="filter2_i_0_1" x="15" y="85.0715" width="57.9918" height="78.5664" filterUnits="userSpaceOnUse" color-interpolation-filters="sRGB">
<feFlood flood-opacity="0" result="BackgroundImageFix"/>
<feBlend mode="normal" in="SourceGraphic" in2="BackgroundImageFix" result="shape"/>
<feColorMatrix in="SourceAlpha" type="matrix" values="0 0 0 0 0 0 0 0 0 0 0 0 0 0 0 0 0 0 127 0" result="hardAlpha"/>
<feOffset dy="9"/>
<feGaussianBlur stdDeviation="2.5"/>
<feComposite in2="hardAlpha" operator="arithmetic" k2="-1" k3="1"/>
<feColorMatrix type="matrix" values="0 0 0 0 0 0 0 0 0 0 0 0 0 0 0 0 0 0 0.52 0"/>
<feBlend mode="normal" in2="shape" result="effect1_innerShadow_0_1"/>
</filter>
<filter id="filter3_i_0_1" x="15" y="58.1693" width="57.9918" height="78.5664" filterUnits="userSpaceOnUse" color-interpolation-filters="sRGB">
<feFlood flood-opacity="0" result="BackgroundImageFix"/>
<feBlend mode="normal" in="SourceGraphic" in2="BackgroundImageFix" result="shape"/>
<feColorMatrix in="SourceAlpha" type="matrix" values="0 0 0 0 0 0 0 0 0 0 0 0 0 0 0 0 0 0 127 0" result="hardAlpha"/>
<feOffset dy="9"/>
<feGaussianBlur stdDeviation="2.5"/>
<feComposite in2="hardAlpha" operator="arithmetic" k2="-1" k3="1"/>
<feColorMatrix type="matrix" values="0 0 0 0 0 0 0 0 0 0 0 0 0 0 0 0 0 0 0.52 0"/>
<feBlend mode="normal" in2="shape" result="effect1_innerShadow_0_1"/>
</filter>
<filter id="filter4_i_0_1" x="77.6527" y="71.6204" width="34.7184" height="92.0172" filterUnits="userSpaceOnUse" color-interpolation-filters="sRGB">
<feFlood flood-opacity="0" result="BackgroundImageFix"/>
<feBlend mode="normal" in="SourceGraphic" in2="BackgroundImageFix" result="shape"/>
<feColorMatrix in="SourceAlpha" type="matrix" values="0 0 0 0 0 0 0 0 0 0 0 0 0 0 0 0 0 0 127 0" result="hardAlpha"/>
<feOffset dy="9"/>
<feGaussianBlur stdDeviation="2.5"/>
<feComposite in2="hardAlpha" operator="arithmetic" k2="-1" k3="1"/>
<feColorMatrix type="matrix" values="0 0 0 0 0 0 0 0 0 0 0 0 0 0 0 0 0 0 0.52 0"/>
<feBlend mode="normal" in2="shape" result="effect1_innerShadow_0_1"/>
</filter>
<filter id="filter5_i_0_1" x="100.956" y="58.1693" width="34.7184" height="92.0172" filterUnits="userSpaceOnUse" color-interpolation-filters="sRGB">
<feFlood flood-opacity="0" result="BackgroundImageFix"/>
<feBlend mode="normal" in="SourceGraphic" in2="BackgroundImageFix" result="shape"/>
<feColorMatrix in="SourceAlpha" type="matrix" values="0 0 0 0 0 0 0 0 0 0 0 0 0 0 0 0 0 0 127 0" result="hardAlpha"/>
<feOffset dy="9"/>
<feGaussianBlur stdDeviation="2.5"/>
<feComposite in2="hardAlpha" operator="arithmetic" k2="-1" k3="1"/>
<feColorMatrix type="matrix" values="0 0 0 0 0 0 0 0 0 0 0 0 0 0 0 0 0 0 0.52 0"/>
<feBlend mode="normal" in2="shape" result="effect1_innerShadow_0_1"/>
</filter>
<filter id="filter6_i_0_1" x="143.968" y="80.432" width="152.515" height="50.016" filterUnits="userSpaceOnUse" color-interpolation-filters="sRGB">
<feFlood flood-opacity="0" result="BackgroundImageFix"/>
<feBlend mode="normal" in="SourceGraphic" in2="BackgroundImageFix" result="shape"/>
<feColorMatrix in="SourceAlpha" type="matrix" values="0 0 0 0 0 0 0 0 0 0 0 0 0 0 0 0 0 0 127 0" result="hardAlpha"/>
<feOffset dy="4"/>
<feGaussianBlur stdDeviation="2"/>
<feComposite in2="hardAlpha" operator="arithmetic" k2="-1" k3="1"/>
<feColorMatrix type="matrix" values="0 0 0 0 0 0 0 0 0 0 0 0 0 0 0 0 0 0 0.25 0"/>
<feBlend mode="normal" in2="shape" result="effect1_innerShadow_0_1"/>
</filter>
<filter id="filter7_i_0_1" x="143.968" y="18.072" width="117.004" height="48.928" filterUnits="userSpaceOnUse" color-interpolation-filters="sRGB">
<feFlood flood-opacity="0" result="BackgroundImageFix"/>
<feBlend mode="normal" in="SourceGraphic" in2="BackgroundImageFix" result="shape"/>
<feColorMatrix in="SourceAlpha" type="matrix" values="0 0 0 0 0 0 0 0 0 0 0 0 0 0 0 0 0 0 127 0" result="hardAlpha"/>
<feOffset dy="4"/>
<feGaussianBlur stdDeviation="2"/>
<feComposite in2="hardAlpha" operator="arithmetic" k2="-1" k3="1"/>
<feColorMatrix type="matrix" values="0 0 0 0 0 0 0 0 0 0 0 0 0 0 0 0 0 0 0.25 0"/>
<feBlend mode="normal" in2="shape" result="effect1_innerShadow_0_1"/>
</filter>
</defs>
</svg>
