M48
; DRILL file {KiCad 7.99.0-1450-gc37332bdb3} date Sat 19 Aug 2023 19:03:48 BST
; FORMAT={-:-/ absolute / inch / decimal}
; #@! TF.CreationDate,2023-08-19T19:03:48+01:00
; #@! TF.GenerationSoftware,Kicad,Pcbnew,7.99.0-1450-gc37332bdb3
; #@! TF.FileFunction,NonPlated,1,4,NPTH
FMAT,2
INCH
; #@! TA.AperFunction,NonPlated,NPTH,ComponentDrill
T1C0.0256
; #@! TA.AperFunction,NonPlated,NPTH,ComponentDrill
T2C0.0390
; #@! TA.AperFunction,NonPlated,NPTH,ComponentDrill
T3C0.0670
; #@! TA.AperFunction,NonPlated,NPTH,ComponentDrill
T4C0.0866
; #@! TA.AperFunction,NonPlated,NPTH,ComponentDrill
T5C0.1181
; #@! TA.AperFunction,NonPlated,NPTH,ComponentDrill
T6C0.1570
%
G90
G05
T1
X6.6768Y-1.9083
X6.9043Y-1.9083
T2
X5.9461Y-2.6535
X6.1461Y-2.6135
X6.1461Y-2.6935
T3
X2.663Y-3.9787
X2.6644Y-2.4748
X2.6648Y-3.2283
X3.063Y-3.9787
X3.0644Y-2.4748
X3.0648Y-3.2283
X3.4142Y-3.0528
X3.4142Y-3.8031
X3.4144Y-2.3012
X3.8142Y-3.0528
X3.8142Y-3.8031
X3.8144Y-2.3012
X4.1669Y-2.9207
X4.1669Y-3.671
X4.1671Y-2.169
X4.5669Y-2.9207
X4.5669Y-3.671
X4.5671Y-2.169
X4.9175Y-3.5843
X4.9177Y-2.0823
X4.9177Y-2.8339
X5.3175Y-3.5843
X5.3177Y-2.0823
X5.3177Y-2.8339
X5.6675Y-4.4646
X5.6684Y-2.878
X5.6684Y-3.628
X5.6686Y-2.1263
X6.0675Y-4.4646
X6.0684Y-2.878
X6.0684Y-3.628
X6.0686Y-2.1263
X6.4188Y-2.9156
X6.4188Y-3.6659
X6.419Y-2.1639
X6.487Y-4.4919
X6.8188Y-2.9156
X6.8188Y-3.6659
X6.819Y-2.1639
X6.8831Y-4.5475
X7.2881Y-4.6378
X7.6726Y-4.748
T4
X2.5287Y-2.0563
X2.5303Y-4.2898
X3.2209Y-2.8472
X3.4236Y-4.2858
X4.7Y-3.25
X4.7362Y-1.7882
X5.528Y-4.7764
X5.7583Y-1.7835
X6.4287Y-3.3122
X6.9429Y-2.0681
X6.9539Y-4.1335
X7.6913Y-5.0713
X7.8587Y-4.4748
T5
X2.763Y-4.1787
X2.7644Y-2.6748
X2.7648Y-3.4283
X3.013Y-4.0787
X3.0144Y-2.5748
X3.0148Y-3.3283
X3.5142Y-3.2528
X3.5142Y-4.0031
X3.5144Y-2.5012
X3.7642Y-3.1528
X3.7642Y-3.9031
X3.7644Y-2.4012
X4.2669Y-3.1207
X4.2669Y-3.871
X4.2671Y-2.369
X4.5169Y-3.0207
X4.5169Y-3.771
X4.5171Y-2.269
X5.0175Y-3.7843
X5.0177Y-2.2823
X5.0177Y-3.0339
X5.2675Y-3.6843
X5.2677Y-2.1823
X5.2677Y-2.9339
X5.7675Y-4.6646
X5.7684Y-3.078
X5.7684Y-3.828
X5.7686Y-2.3263
X6.0175Y-4.5646
X6.0184Y-2.978
X6.0184Y-3.728
X6.0186Y-2.2263
X6.5188Y-3.1156
X6.5188Y-3.8659
X6.519Y-2.3639
X6.5582Y-4.7038
X6.7688Y-3.0156
X6.7688Y-3.7659
X6.769Y-2.2639
X6.8197Y-4.6396
X7.3291Y-4.8576
X7.5969Y-4.8304
T6
X2.863Y-3.9787
X2.8644Y-2.4748
X2.8648Y-3.2283
X3.6142Y-3.0528
X3.6142Y-3.8031
X3.6144Y-2.3012
X4.3669Y-2.9207
X4.3669Y-3.671
X4.3671Y-2.169
X5.1175Y-3.5843
X5.1177Y-2.0823
X5.1177Y-2.8339
X5.8675Y-4.4646
X5.8684Y-2.878
X5.8684Y-3.628
X5.8686Y-2.1263
X6.6188Y-2.9156
X6.6188Y-3.6659
X6.619Y-2.1639
X6.685Y-4.5197
X7.4803Y-4.6929
T0
M30
