M48
; DRILL file {KiCad 7.99.0-1450-gc37332bdb3} date Sat 19 Aug 2023 19:03:48 BST
; FORMAT={-:-/ absolute / inch / decimal}
; #@! TF.CreationDate,2023-08-19T19:03:48+01:00
; #@! TF.GenerationSoftware,Kicad,Pcbnew,7.99.0-1450-gc37332bdb3
; #@! TF.FileFunction,Plated,1,4,PTH
FMAT,2
INCH
; #@! TA.AperFunction,Plated,PTH,ViaDrill
T1C0.0059
; #@! TA.AperFunction,Plated,PTH,ComponentDrill
T2C0.0079
; #@! TA.AperFunction,Plated,PTH,ViaDrill
T3C0.0118
; #@! TA.AperFunction,Plated,PTH,ViaDrill
T4C0.0157
; #@! TA.AperFunction,Plated,PTH,ComponentDrill
T5C0.0236
; #@! TA.AperFunction,Plated,PTH,ComponentDrill
T6C0.0354
; #@! TA.AperFunction,Plated,PTH,ComponentDrill
T7C0.0394
; #@! TA.AperFunction,Plated,PTH,ComponentDrill
T8C0.0591
%
G90
G05
T1
X2.5984Y-4.2677
X2.6063Y-2.7795
X4.1024Y-3.9921
X4.1194Y-2.4488
X5.1181Y-3.2598
X5.126Y-3.3701
X5.1972Y-3.3512
X5.2266Y-3.1646
X5.301Y-3.0411
X5.3035Y-3.0587
X5.3192Y-3.1661
X5.3354Y-3.3787
X5.3386Y-3.4173
X5.3433Y-3.25
X5.3495Y-3.2979
X5.351Y-3.3176
X5.365Y-3.1037
X5.372Y-3.3361
X5.3789Y-3.1969
X5.3799Y-3.2303
X5.3858Y-3.2131
X5.3957Y-3.1394
X5.3964Y-3.0402
X5.4018Y-3.057
X5.4085Y-3.3077
X5.4094Y-3.7795
X5.4164Y-3.4952
X5.4262Y-3.2948
X5.4341Y-3.4127
X5.435Y-3.235
X5.4436Y-3.0893
X5.4612Y-3.2554
X5.4612Y-3.4375
X5.4732Y-3.3236
X5.4751Y-3.2415
X5.4753Y-3.4542
X5.4781Y-3.641
X5.4872Y-3.5463
X5.4889Y-3.2275
X5.4891Y-3.4676
X5.4996Y-3.4819
X5.5014Y-3.5215
X5.5026Y-3.2128
X5.518Y-3.1812
X5.5461Y-3.3925
X5.5498Y-3.2156
X5.5637Y-3.2296
X5.5679Y-3.0
X5.5777Y-3.2435
X5.5815Y-2.6209
X5.5827Y-2.8425
X5.5886Y-3.5648
X5.5971Y-3.2629
X5.6059Y-3.3732
X5.606Y-3.5617
X5.6081Y-3.249
X5.6102Y-3.424
X5.615Y-2.7966
X5.6236Y-3.4102
X5.6372Y-3.4707
X5.6378Y-4.5669
X5.6386Y-3.3961
X5.65Y-3.3104
X5.6516Y-3.3807
X5.6535Y-3.937
X5.6535Y-3.9606
X5.6535Y-3.9843
X5.6545Y-3.9144
X5.6644Y-3.3671
X5.6732Y-3.2677
X5.6759Y-3.3167
X5.6805Y-3.3494
X5.6854Y-3.3018
X5.689Y-3.2677
X5.6988Y-3.382
X5.7029Y-3.3018
X5.7047Y-3.2677
X5.7119Y-3.3952
X5.7191Y-3.3018
X5.7205Y-3.2677
X5.7323Y-3.315
X5.7323Y-3.3307
X5.7323Y-3.3465
X5.7323Y-3.3622
X5.7323Y-3.378
X5.7323Y-3.3937
X5.7323Y-3.4094
X5.7323Y-3.4252
X5.7346Y-3.2571
X5.748Y-3.248
X5.748Y-3.437
X5.748Y-3.5827
X5.748Y-3.5827
X5.7638Y-3.248
X5.7638Y-3.437
X5.7795Y-3.248
X5.7795Y-3.437
X5.7953Y-3.437
X5.7973Y-3.248
X5.811Y-3.437
X5.8118Y-2.4827
X5.815Y-3.248
X5.8268Y-3.437
X5.8307Y-3.248
X5.8425Y-3.437
X5.8465Y-3.248
X5.8583Y-3.437
X5.8661Y-3.2402
X5.8661Y-3.378
X5.8661Y-3.3937
X5.8661Y-3.4094
X5.8661Y-3.4252
X5.878Y-3.2283
X5.8819Y-3.378
X5.8898Y-3.2165
X5.8929Y-2.5994
X5.8976Y-3.378
X5.9016Y-3.2047
X5.9016Y-3.4173
X5.9134Y-3.1929
X5.9134Y-3.378
X5.9291Y-3.1929
X5.9291Y-3.378
X5.9449Y-3.1929
X5.9449Y-3.378
X5.9569Y-3.2281
X5.9569Y-3.3443
X5.9606Y-3.1929
X5.9606Y-3.378
X5.9711Y-3.524
X5.9764Y-3.1929
X5.9764Y-3.378
X5.9921Y-3.1929
X5.9921Y-3.378
X6.0079Y-3.1929
X6.0079Y-3.378
X6.0236Y-3.2008
X6.0236Y-3.2165
X6.0236Y-3.2323
X6.0236Y-3.252
X6.0236Y-3.2677
X6.0236Y-3.2835
X6.0236Y-3.2992
X6.0236Y-3.315
X6.0236Y-3.3307
X6.0236Y-3.3465
X6.0236Y-3.3622
X6.0236Y-3.378
X6.0328Y-3.4926
X6.0591Y-3.25
X6.0616Y-3.1917
X6.0776Y-4.0484
X6.0925Y-2.0449
X6.1524Y-3.3799
X6.1898Y-2.0953
X6.1941Y-2.0657
X6.1949Y-2.6205
X6.2376Y-2.5589
X6.2441Y-2.5261
X6.2512Y-3.452
X6.2617Y-2.5252
X6.2794Y-2.5268
X6.2886Y-2.7911
X6.2906Y-1.8319
X6.2957Y-1.7595
X6.2971Y-2.5266
X6.315Y-1.963
X6.3235Y-4.2013
X6.3268Y-2.6902
X6.3465Y-4.2007
X6.3472Y-2.302
X6.3543Y-2.4724
X6.3543Y-3.0157
X6.3697Y-4.2002
X6.3732Y-2.0831
X6.3874Y-2.8248
X6.3882Y-2.7827
X6.3906Y-2.7337
X6.3909Y-1.9555
X6.3937Y-3.9528
X6.4075Y-2.0281
X6.4154Y-1.7595
X6.4157Y-2.6681
X6.4209Y-2.574
X6.4902Y-2.8024
X6.4984Y-2.1327
X6.4984Y-2.6693
X6.5071Y-2.5717
X6.535Y-1.7595
X6.5449Y-2.5028
X6.6457Y-2.0079
X6.676Y-2.3378
X6.6766Y-2.7229
X6.6982Y-2.7258
X6.7488Y-2.085
X6.7563Y-2.0213
X6.7709Y-3.4543
X6.7817Y-2.4608
X6.7874Y-2.0236
X6.7953Y-1.8031
X6.8051Y-2.0236
X6.8169Y-4.211
X6.8276Y-2.6551
X6.8315Y-2.0835
X6.8323Y-2.5949
X6.8335Y-2.5549
X6.8402Y-4.4937
X6.876Y-2.4407
X6.937Y-2.0079
X6.9449Y-3.5457
X6.9539Y-4.228
X7.0264Y-4.2921
X7.044Y-4.4245
X7.0476Y-4.402
X7.0602Y-4.6102
X7.1382Y-4.6122
X7.139Y-4.1402
X7.14Y-4.2195
X7.149Y-4.4801
X7.1496Y-4.9055
X7.1654Y-4.4934
X7.1791Y-4.5102
X7.1938Y-4.5253
X7.2173Y-4.6087
T2
X6.6697Y-2.5618
X6.6697Y-2.6012
X6.6697Y-2.6406
X6.7091Y-2.5618
X6.7091Y-2.6012
X6.7091Y-2.6406
X6.7484Y-2.5618
X6.7484Y-2.6012
X6.7484Y-2.6406
T3
X6.5379Y-2.6284
X6.736Y-2.7543
X6.8165Y-2.5091
T4
X6.198Y-2.126
X6.2425Y-2.5944
T6
X5.9646Y-1.7831
X6.0433Y-1.7831
X6.122Y-1.7831
T7
X5.9776Y-2.5098
X6.076Y-2.5098
T8
X5.8819Y-1.7831
X6.2047Y-1.7831
T5
G00X6.6205Y-1.7476
M15
G01X6.6205Y-1.7791
M16
G05
G00X6.6205Y-1.9071
M15
G01X6.6205Y-1.9504
M16
G05
G00X6.9606Y-1.7476
M15
G01X6.9606Y-1.7791
M16
G05
G00X6.9606Y-1.9071
M15
G01X6.9606Y-1.9504
M16
G05
T0
M30
