%TF.GenerationSoftware,KiCad,Pcbnew,7.99.0-1450-gc37332bdb3*%
%TF.CreationDate,2023-08-19T12:21:20+01:00*%
%TF.ProjectId,benboard,62656e62-6f61-4726-942e-6b696361645f,rev?*%
%TF.SameCoordinates,Original*%
%TF.FileFunction,Paste,Bot*%
%TF.FilePolarity,Positive*%
%FSLAX46Y46*%
G04 Gerber Fmt 4.6, Leading zero omitted, Abs format (unit mm)*
G04 Created by KiCad (PCBNEW 7.99.0-1450-gc37332bdb3) date 2023-08-19 12:21:20*
%MOMM*%
%LPD*%
G01*
G04 APERTURE LIST*
G04 Aperture macros list*
%AMRoundRect*
0 Rectangle with rounded corners*
0 $1 Rounding radius*
0 $2 $3 $4 $5 $6 $7 $8 $9 X,Y pos of 4 corners*
0 Add a 4 corners polygon primitive as box body*
4,1,4,$2,$3,$4,$5,$6,$7,$8,$9,$2,$3,0*
0 Add four circle primitives for the rounded corners*
1,1,$1+$1,$2,$3*
1,1,$1+$1,$4,$5*
1,1,$1+$1,$6,$7*
1,1,$1+$1,$8,$9*
0 Add four rect primitives between the rounded corners*
20,1,$1+$1,$2,$3,$4,$5,0*
20,1,$1+$1,$4,$5,$6,$7,0*
20,1,$1+$1,$6,$7,$8,$9,0*
20,1,$1+$1,$8,$9,$2,$3,0*%
%AMRotRect*
0 Rectangle, with rotation*
0 The origin of the aperture is its center*
0 $1 length*
0 $2 width*
0 $3 Rotation angle, in degrees counterclockwise*
0 Add horizontal line*
21,1,$1,$2,0,0,$3*%
%AMFreePoly0*
4,1,48,0.243846,0.320419,0.247801,0.321117,0.251278,0.319109,0.263019,0.317039,0.281006,0.301945,0.301344,0.290204,0.304133,0.282540,0.310381,0.277298,0.314458,0.254171,0.322490,0.232106,0.322490,-0.157228,0.321515,-0.162753,0.322146,-0.165106,0.320465,-0.168710,0.317039,-0.188141,0.304356,-0.203256,0.296017,-0.221139,0.221139,-0.296017,0.216543,-0.299234,0.215326,-0.301344,
0.211587,-0.302704,0.195426,-0.314021,0.175771,-0.315740,0.157228,-0.322490,-0.232106,-0.322490,-0.243846,-0.320419,-0.247801,-0.321117,-0.251278,-0.319109,-0.263019,-0.317039,-0.281006,-0.301945,-0.301344,-0.290204,-0.304133,-0.282540,-0.310381,-0.277298,-0.314458,-0.254171,-0.322490,-0.232106,-0.322490,0.232106,-0.320419,0.243846,-0.321117,0.247801,-0.319109,0.251278,-0.317039,0.263019,
-0.301945,0.281006,-0.290204,0.301344,-0.282540,0.304133,-0.277298,0.310381,-0.254171,0.314458,-0.232106,0.322490,0.232106,0.322490,0.243846,0.320419,0.243846,0.320419,$1*%
%AMFreePoly1*
4,1,51,0.186967,0.402286,0.188965,0.402822,0.192026,0.401394,0.208508,0.398488,0.221329,0.387729,0.236504,0.380653,0.300030,0.317127,0.302759,0.313228,0.304550,0.312195,0.305704,0.309022,0.315305,0.295312,0.316763,0.278637,0.322490,0.262904,0.322490,-0.262904,0.321663,-0.267592,0.322198,-0.269588,0.320772,-0.272645,0.317865,-0.289131,0.307105,-0.301953,0.300030,-0.317127,
0.236504,-0.380653,0.232605,-0.383382,0.231572,-0.385173,0.228399,-0.386327,0.214688,-0.395928,0.198014,-0.397386,0.182281,-0.403113,-0.245807,-0.403113,-0.255768,-0.401356,-0.259123,-0.401948,-0.262073,-0.400244,-0.272034,-0.398488,-0.287292,-0.385684,-0.304550,-0.375721,-0.306917,-0.369217,-0.312216,-0.364771,-0.315675,-0.345154,-0.322490,-0.326430,-0.322490,0.326430,-0.320733,0.336391,
-0.321325,0.339746,-0.319621,0.342696,-0.317865,0.352657,-0.305061,0.367915,-0.295098,0.385173,-0.288594,0.387540,-0.284148,0.392839,-0.264531,0.396298,-0.245807,0.403113,0.182281,0.403113,0.186967,0.402286,0.186967,0.402286,$1*%
%AMFreePoly2*
4,1,48,0.162752,0.321515,0.165105,0.322146,0.168708,0.320465,0.188141,0.317039,0.203256,0.304355,0.221139,0.296017,0.296017,0.221139,0.299234,0.216543,0.301344,0.215326,0.302704,0.211587,0.314021,0.195426,0.315740,0.175771,0.322490,0.157228,0.322490,-0.232106,0.320419,-0.243846,0.321117,-0.247801,0.319109,-0.251278,0.317039,-0.263019,0.301945,-0.281006,0.290204,-0.301344,
0.282540,-0.304133,0.277298,-0.310381,0.254171,-0.314458,0.232106,-0.322490,-0.232106,-0.322490,-0.243846,-0.320419,-0.247801,-0.321117,-0.251278,-0.319109,-0.263019,-0.317039,-0.281006,-0.301945,-0.301344,-0.290204,-0.304133,-0.282540,-0.310381,-0.277298,-0.314458,-0.254171,-0.322490,-0.232106,-0.322490,0.232106,-0.320419,0.243846,-0.321117,0.247801,-0.319109,0.251278,-0.317039,0.263019,
-0.301945,0.281006,-0.290204,0.301344,-0.282540,0.304133,-0.277298,0.310381,-0.254171,0.314458,-0.232106,0.322490,0.157228,0.322490,0.162752,0.321515,0.162752,0.321515,$1*%
%AMFreePoly3*
4,1,51,0.336391,0.320733,0.339746,0.321325,0.342696,0.319621,0.352657,0.317865,0.367915,0.305061,0.385173,0.295098,0.387540,0.288594,0.392839,0.284148,0.396298,0.264531,0.403113,0.245807,0.403113,-0.182281,0.402286,-0.186969,0.402821,-0.188965,0.401395,-0.192022,0.398488,-0.208508,0.387728,-0.221330,0.380653,-0.236504,0.317127,-0.300030,0.313228,-0.302759,0.312195,-0.304550,
0.309022,-0.305704,0.295311,-0.315305,0.278637,-0.316763,0.262904,-0.322490,-0.262904,-0.322490,-0.267592,-0.321663,-0.269588,-0.322198,-0.272645,-0.320772,-0.289131,-0.317865,-0.301953,-0.307105,-0.317127,-0.300030,-0.380653,-0.236504,-0.383382,-0.232605,-0.385173,-0.231572,-0.386327,-0.228399,-0.395928,-0.214688,-0.397386,-0.198014,-0.403113,-0.182281,-0.403113,0.245807,-0.401356,0.255768,
-0.401948,0.259123,-0.400244,0.262073,-0.398488,0.272034,-0.385684,0.287292,-0.375721,0.304550,-0.369217,0.306917,-0.364771,0.312216,-0.345154,0.315675,-0.326430,0.322490,0.326430,0.322490,0.336391,0.320733,0.336391,0.320733,$1*%
%AMFreePoly4*
4,1,51,0.267590,0.321663,0.269588,0.322199,0.272649,0.320771,0.289131,0.317865,0.301952,0.307106,0.317127,0.300030,0.380653,0.236504,0.383382,0.232605,0.385173,0.231572,0.386327,0.228399,0.395928,0.214689,0.397386,0.198014,0.403113,0.182281,0.403113,-0.245807,0.401356,-0.255768,0.401948,-0.259123,0.400244,-0.262073,0.398488,-0.272034,0.385684,-0.287292,0.375721,-0.304550,
0.369217,-0.306917,0.364771,-0.312216,0.345154,-0.315675,0.326430,-0.322490,-0.326430,-0.322490,-0.336391,-0.320733,-0.339746,-0.321325,-0.342696,-0.319621,-0.352657,-0.317865,-0.367915,-0.305061,-0.385173,-0.295098,-0.387540,-0.288594,-0.392839,-0.284148,-0.396298,-0.264531,-0.403113,-0.245807,-0.403113,0.182281,-0.402286,0.186967,-0.402822,0.188965,-0.401394,0.192026,-0.398488,0.208508,
-0.387729,0.221329,-0.380653,0.236504,-0.317127,0.300030,-0.313228,0.302759,-0.312195,0.304550,-0.309022,0.305704,-0.295312,0.315305,-0.278637,0.316763,-0.262904,0.322490,0.262904,0.322490,0.267590,0.321663,0.267590,0.321663,$1*%
%AMFreePoly5*
4,1,48,0.243846,0.320419,0.247801,0.321117,0.251278,0.319109,0.263019,0.317039,0.281006,0.301945,0.301344,0.290204,0.304133,0.282540,0.310381,0.277298,0.314458,0.254171,0.322490,0.232106,0.322490,-0.232106,0.320419,-0.243846,0.321117,-0.247801,0.319109,-0.251278,0.317039,-0.263019,0.301945,-0.281006,0.290204,-0.301344,0.282540,-0.304133,0.277298,-0.310381,0.254171,-0.314458,
0.232106,-0.322490,-0.157228,-0.322490,-0.162753,-0.321515,-0.165106,-0.322146,-0.168710,-0.320465,-0.188141,-0.317039,-0.203256,-0.304356,-0.221139,-0.296017,-0.296017,-0.221139,-0.299234,-0.216543,-0.301344,-0.215326,-0.302704,-0.211587,-0.314021,-0.195426,-0.315740,-0.175771,-0.322490,-0.157228,-0.322490,0.232106,-0.320419,0.243846,-0.321117,0.247801,-0.319109,0.251278,-0.317039,0.263019,
-0.301945,0.281006,-0.290204,0.301344,-0.282540,0.304133,-0.277298,0.310381,-0.254171,0.314458,-0.232106,0.322490,0.232106,0.322490,0.243846,0.320419,0.243846,0.320419,$1*%
%AMFreePoly6*
4,1,51,0.255768,0.401356,0.259123,0.401948,0.262073,0.400244,0.272034,0.398488,0.287292,0.385684,0.304550,0.375721,0.306917,0.369217,0.312216,0.364771,0.315675,0.345154,0.322490,0.326430,0.322490,-0.326430,0.320733,-0.336391,0.321325,-0.339746,0.319621,-0.342696,0.317865,-0.352657,0.305061,-0.367915,0.295098,-0.385173,0.288594,-0.387540,0.284148,-0.392839,0.264531,-0.396298,
0.245807,-0.403113,-0.182281,-0.403113,-0.186969,-0.402286,-0.188965,-0.402821,-0.192022,-0.401395,-0.208508,-0.398488,-0.221330,-0.387728,-0.236504,-0.380653,-0.300030,-0.317127,-0.302759,-0.313228,-0.304550,-0.312195,-0.305704,-0.309022,-0.315305,-0.295311,-0.316763,-0.278637,-0.322490,-0.262904,-0.322490,0.262904,-0.321663,0.267590,-0.322199,0.269588,-0.320771,0.272649,-0.317865,0.289131,
-0.307106,0.301952,-0.300030,0.317127,-0.236504,0.380653,-0.232605,0.383382,-0.231572,0.385173,-0.228399,0.386327,-0.214689,0.395928,-0.198014,0.397386,-0.182281,0.403113,0.245807,0.403113,0.255768,0.401356,0.255768,0.401356,$1*%
%AMFreePoly7*
4,1,48,0.243846,0.320419,0.247801,0.321117,0.251278,0.319109,0.263019,0.317039,0.281006,0.301945,0.301344,0.290204,0.304133,0.282540,0.310381,0.277298,0.314458,0.254171,0.322490,0.232106,0.322490,-0.232106,0.320419,-0.243846,0.321117,-0.247801,0.319109,-0.251278,0.317039,-0.263019,0.301945,-0.281006,0.290204,-0.301344,0.282540,-0.304133,0.277298,-0.310381,0.254171,-0.314458,
0.232106,-0.322490,-0.232106,-0.322490,-0.243846,-0.320419,-0.247801,-0.321117,-0.251278,-0.319109,-0.263019,-0.317039,-0.281006,-0.301945,-0.301344,-0.290204,-0.304133,-0.282540,-0.310381,-0.277298,-0.314458,-0.254171,-0.322490,-0.232106,-0.322490,0.157228,-0.321515,0.162752,-0.322146,0.165105,-0.320465,0.168708,-0.317039,0.188141,-0.304355,0.203256,-0.296017,0.221139,-0.221139,0.296017,
-0.216543,0.299234,-0.215326,0.301344,-0.211587,0.302704,-0.195426,0.314021,-0.175771,0.315740,-0.157228,0.322490,0.232106,0.322490,0.243846,0.320419,0.243846,0.320419,$1*%
G04 Aperture macros list end*
%ADD10RoundRect,0.200000X0.275000X-0.200000X0.275000X0.200000X-0.275000X0.200000X-0.275000X-0.200000X0*%
%ADD11R,2.550000X2.500000*%
%ADD12RotRect,2.550000X2.500000X164.000000*%
%ADD13RotRect,2.550000X2.500000X172.000000*%
%ADD14RoundRect,0.225000X-0.250000X0.225000X-0.250000X-0.225000X0.250000X-0.225000X0.250000X0.225000X0*%
%ADD15RoundRect,0.225000X-0.225000X-0.250000X0.225000X-0.250000X0.225000X0.250000X-0.225000X0.250000X0*%
%ADD16RoundRect,0.225000X0.225000X0.250000X-0.225000X0.250000X-0.225000X-0.250000X0.225000X-0.250000X0*%
%ADD17RoundRect,0.225000X0.250000X-0.225000X0.250000X0.225000X-0.250000X0.225000X-0.250000X-0.225000X0*%
%ADD18RotRect,0.280000X1.250000X335.013000*%
%ADD19RotRect,1.800000X2.000000X335.013000*%
%ADD20RoundRect,0.218750X0.218750X0.256250X-0.218750X0.256250X-0.218750X-0.256250X0.218750X-0.256250X0*%
%ADD21R,0.900000X0.400000*%
%ADD22RoundRect,0.218750X-0.256250X0.218750X-0.256250X-0.218750X0.256250X-0.218750X0.256250X0.218750X0*%
%ADD23R,0.600000X1.240000*%
%ADD24R,0.300000X1.240000*%
%ADD25R,1.200000X1.400000*%
%ADD26R,0.700000X1.000000*%
%ADD27R,0.700000X0.600000*%
%ADD28R,1.400000X1.200000*%
%ADD29R,1.050000X1.000000*%
%ADD30R,2.200000X1.050000*%
%ADD31RoundRect,0.218750X-0.218750X-0.256250X0.218750X-0.256250X0.218750X0.256250X-0.218750X0.256250X0*%
%ADD32FreePoly0,180.000000*%
%ADD33FreePoly1,180.000000*%
%ADD34FreePoly2,180.000000*%
%ADD35FreePoly3,180.000000*%
%ADD36RoundRect,0.201557X0.201556X0.201556X-0.201556X0.201556X-0.201556X-0.201556X0.201556X-0.201556X0*%
%ADD37FreePoly4,180.000000*%
%ADD38FreePoly5,180.000000*%
%ADD39FreePoly6,180.000000*%
%ADD40FreePoly7,180.000000*%
%ADD41RoundRect,0.062500X0.337500X0.062500X-0.337500X0.062500X-0.337500X-0.062500X0.337500X-0.062500X0*%
%ADD42RoundRect,0.062500X0.062500X0.337500X-0.062500X0.337500X-0.062500X-0.337500X0.062500X-0.337500X0*%
%ADD43RoundRect,0.200000X-0.275000X0.200000X-0.275000X-0.200000X0.275000X-0.200000X0.275000X0.200000X0*%
%ADD44RotRect,2.000000X2.000000X225.000000*%
%ADD45C,0.250000*%
%ADD46RoundRect,0.200000X0.200000X0.275000X-0.200000X0.275000X-0.200000X-0.275000X0.200000X-0.275000X0*%
G04 APERTURE END LIST*
D10*
%TO.C,R4*%
X162230000Y-71775000D03*
X162230000Y-70125000D03*
%TD*%
%TO.C,R3*%
X160700000Y-71765000D03*
X160700000Y-70115000D03*
%TD*%
D11*
%TO.C,SW16*%
X161831483Y-60044220D03*
X175681483Y-57504220D03*
%TD*%
%TO.C,SW6*%
X85510000Y-101680000D03*
X99360000Y-99140000D03*
%TD*%
%TO.C,SW8*%
X104628494Y-79264805D03*
X118478494Y-76724805D03*
%TD*%
%TO.C,SW5*%
X85509895Y-82621207D03*
X99359895Y-80081207D03*
%TD*%
%TO.C,SW18*%
X161826830Y-98194347D03*
X175676830Y-95654347D03*
%TD*%
%TO.C,SW10*%
X123699237Y-57970911D03*
X137549237Y-55430911D03*
%TD*%
%TO.C,SW4*%
X85514653Y-63529873D03*
X99364653Y-60989873D03*
%TD*%
%TO.C,SW14*%
X142767663Y-78180569D03*
X156617663Y-75640569D03*
%TD*%
%TO.C,SW9*%
X104628599Y-98323598D03*
X118478599Y-95783598D03*
%TD*%
%TO.C,SW7*%
X104633252Y-60173471D03*
X118483252Y-57633471D03*
%TD*%
%TO.C,SW11*%
X123700000Y-77062245D03*
X137550000Y-74522245D03*
%TD*%
%TO.C,SW19*%
X142745000Y-118480000D03*
X156595000Y-115940000D03*
%TD*%
%TO.C,SW2*%
X66475000Y-87080000D03*
X80325000Y-84540000D03*
%TD*%
%TO.C,SW15*%
X142767731Y-97231836D03*
X156617731Y-94691836D03*
%TD*%
D12*
%TO.C,SW21*%
X182553425Y-122349449D03*
X196567019Y-123725422D03*
%TD*%
D11*
%TO.C,SW1*%
X66465000Y-67940000D03*
X80315000Y-65400000D03*
%TD*%
D13*
%TO.C,SW20*%
X162864214Y-118955163D03*
X176932927Y-118367430D03*
%TD*%
D11*
%TO.C,SW3*%
X66430000Y-106140000D03*
X80280000Y-103600000D03*
%TD*%
%TO.C,SW12*%
X123694584Y-96121038D03*
X137544584Y-93581038D03*
%TD*%
%TO.C,SW13*%
X142772421Y-59089235D03*
X156622421Y-56549235D03*
%TD*%
%TO.C,SW17*%
X161826725Y-79135554D03*
X175676725Y-76595554D03*
%TD*%
D14*
%TO.C,C21*%
X146530000Y-84935000D03*
X146530000Y-86485000D03*
%TD*%
D15*
%TO.C,C26*%
X171095000Y-69960000D03*
X172645000Y-69960000D03*
%TD*%
D16*
%TO.C,C19*%
X170975000Y-86700000D03*
X169425000Y-86700000D03*
%TD*%
D17*
%TO.C,C10*%
X132800000Y-84375000D03*
X132800000Y-82825000D03*
%TD*%
D14*
%TO.C,C1*%
X136270000Y-78835000D03*
X136270000Y-80385000D03*
%TD*%
D18*
%TO.C,J2*%
X179526513Y-109905616D03*
X179979715Y-110116822D03*
X180432917Y-110328029D03*
X180886119Y-110539235D03*
X181339320Y-110750441D03*
X181792522Y-110961647D03*
X182245724Y-111172854D03*
X182698926Y-111384060D03*
X183152128Y-111595266D03*
X183605329Y-111806473D03*
X184058531Y-112017679D03*
X184511733Y-112228885D03*
D19*
X187293912Y-110520184D03*
X179045638Y-106676230D03*
%TD*%
D20*
%TO.C,L7*%
X175907500Y-67370000D03*
X174332500Y-67370000D03*
%TD*%
D15*
%TO.C,C2*%
X171085000Y-71510000D03*
X172635000Y-71510000D03*
%TD*%
D17*
%TO.C,C20*%
X174370000Y-64335000D03*
X174370000Y-62785000D03*
%TD*%
D15*
%TO.C,C7*%
X149925000Y-86800000D03*
X151475000Y-86800000D03*
%TD*%
D20*
%TO.C,L6*%
X175907500Y-65840000D03*
X174332500Y-65840000D03*
%TD*%
D15*
%TO.C,C16*%
X153015000Y-87800000D03*
X154565000Y-87800000D03*
%TD*%
D21*
%TO.C,U2*%
X172160000Y-83850000D03*
X172160000Y-84500000D03*
X172160000Y-85150000D03*
X169960000Y-85150000D03*
X169960000Y-84500000D03*
X169960000Y-83850000D03*
%TD*%
D17*
%TO.C,C22*%
X139886827Y-97301166D03*
X139886827Y-95751166D03*
%TD*%
D22*
%TO.C,L5*%
X168590000Y-82502500D03*
X168590000Y-84077500D03*
%TD*%
D14*
%TO.C,C14*%
X148040000Y-84935000D03*
X148040000Y-86485000D03*
%TD*%
D16*
%TO.C,C5*%
X134785000Y-80420000D03*
X133235000Y-80420000D03*
%TD*%
D14*
%TO.C,C24*%
X164380000Y-47455000D03*
X164380000Y-49005000D03*
%TD*%
D16*
%TO.C,C25*%
X176395000Y-68950000D03*
X174845000Y-68950000D03*
%TD*%
D14*
%TO.C,C11*%
X134400000Y-85825000D03*
X134400000Y-87375000D03*
%TD*%
%TO.C,C27*%
X165030000Y-67795000D03*
X165030000Y-69345000D03*
%TD*%
%TO.C,C12*%
X131200000Y-85850000D03*
X131200000Y-87400000D03*
%TD*%
D23*
%TO.C,J1*%
X169280000Y-49590000D03*
X170080000Y-49590000D03*
D24*
X171230000Y-49590000D03*
X172230000Y-49590000D03*
X172730000Y-49590000D03*
X173730000Y-49590000D03*
D23*
X174880000Y-49590000D03*
X175680000Y-49590000D03*
X175680000Y-49590000D03*
X174880000Y-49590000D03*
D24*
X174230000Y-49590000D03*
X173230000Y-49590000D03*
X171730000Y-49590000D03*
X170730000Y-49590000D03*
D23*
X170080000Y-49590000D03*
X169280000Y-49590000D03*
%TD*%
D25*
%TO.C,Y2*%
X139989279Y-93969402D03*
X139989279Y-91569402D03*
X141889279Y-91569402D03*
X141889279Y-93969402D03*
%TD*%
D26*
%TO.C,D4*%
X162300000Y-47910000D03*
D27*
X162300000Y-49610000D03*
X160300000Y-49610000D03*
X160300000Y-47710000D03*
%TD*%
D28*
%TO.C,Y1*%
X156370000Y-85780000D03*
X158770000Y-85780000D03*
X158770000Y-87680000D03*
X156370000Y-87680000D03*
%TD*%
D29*
%TO.C,J5*%
X149780000Y-83470000D03*
D30*
X151305000Y-81995000D03*
X151305000Y-84945000D03*
%TD*%
D17*
%TO.C,C8*%
X141800000Y-74975000D03*
X141800000Y-73425000D03*
%TD*%
D31*
%TO.C,L2*%
X153882500Y-82610000D03*
X155457500Y-82610000D03*
%TD*%
D20*
%TO.C,L4*%
X147847500Y-83440000D03*
X146272500Y-83440000D03*
%TD*%
D14*
%TO.C,C3*%
X153950000Y-84115000D03*
X153950000Y-85665000D03*
%TD*%
%TO.C,C13*%
X132800000Y-85850000D03*
X132800000Y-87400000D03*
%TD*%
%TO.C,C6*%
X138400000Y-89825000D03*
X138400000Y-91375000D03*
%TD*%
D15*
%TO.C,C4*%
X155435000Y-84140000D03*
X156985000Y-84140000D03*
%TD*%
D22*
%TO.C,L3*%
X134400000Y-82812500D03*
X134400000Y-84387500D03*
%TD*%
D14*
%TO.C,C15*%
X165950000Y-47425000D03*
X165950000Y-48975000D03*
%TD*%
D32*
%TO.C,U3*%
X171810000Y-67470000D03*
D33*
X171810000Y-66570000D03*
X171810000Y-65570000D03*
D34*
X171810000Y-64670000D03*
D35*
X170910000Y-67470000D03*
D36*
X170910000Y-66570000D03*
X170910000Y-65570000D03*
D37*
X170910000Y-64670000D03*
D35*
X169910000Y-67470000D03*
D36*
X169910000Y-66570000D03*
X169910000Y-65570000D03*
D37*
X169910000Y-64670000D03*
D38*
X169010000Y-67470000D03*
D39*
X169010000Y-66570000D03*
X169010000Y-65570000D03*
D40*
X169010000Y-64670000D03*
D41*
X172860000Y-64320000D03*
X172860000Y-64820000D03*
X172860000Y-65320000D03*
X172860000Y-65820000D03*
X172860000Y-66320000D03*
X172860000Y-66820000D03*
X172860000Y-67320000D03*
X172860000Y-67820000D03*
D42*
X172160000Y-68520000D03*
X171660000Y-68520000D03*
X171160000Y-68520000D03*
X170660000Y-68520000D03*
X170160000Y-68520000D03*
X169660000Y-68520000D03*
X169160000Y-68520000D03*
X168660000Y-68520000D03*
D41*
X167960000Y-67820000D03*
X167960000Y-67320000D03*
X167960000Y-66820000D03*
X167960000Y-66320000D03*
X167960000Y-65820000D03*
X167960000Y-65320000D03*
X167960000Y-64820000D03*
X167960000Y-64320000D03*
D42*
X168660000Y-63620000D03*
X169160000Y-63620000D03*
X169660000Y-63620000D03*
X170160000Y-63620000D03*
X170660000Y-63620000D03*
X171160000Y-63620000D03*
X171660000Y-63620000D03*
X172160000Y-63620000D03*
%TD*%
D20*
%TO.C,L1*%
X155467500Y-81100000D03*
X153892500Y-81100000D03*
%TD*%
D14*
%TO.C,C17*%
X160552588Y-86171191D03*
X160552588Y-87721191D03*
%TD*%
D43*
%TO.C,R1*%
X166520000Y-68365000D03*
X166520000Y-70015000D03*
%TD*%
D44*
%TO.C,U1*%
X138685266Y-85000000D03*
X140400000Y-86714734D03*
X140400000Y-83285266D03*
X142114734Y-85000000D03*
D45*
X141814214Y-88181981D03*
X142167767Y-87828427D03*
X142521320Y-87474874D03*
X142874874Y-87121320D03*
X143228427Y-86767767D03*
X143581981Y-86414214D03*
X143935534Y-86060660D03*
X144289087Y-85707107D03*
X144642641Y-85353553D03*
X141107107Y-81110913D03*
X136687689Y-85176777D03*
X137041243Y-84469670D03*
X137748350Y-83762563D03*
X138101903Y-83409010D03*
X138455456Y-83055456D03*
X138809010Y-82701903D03*
X139162563Y-82348350D03*
X139516117Y-81994796D03*
X139869670Y-81641243D03*
X140753553Y-80757359D03*
X136157359Y-84646447D03*
X136510913Y-84292893D03*
X136864466Y-83939340D03*
X137218019Y-83585786D03*
X137571573Y-83232233D03*
X137925126Y-82878680D03*
X138278680Y-82525126D03*
X138632233Y-82171573D03*
X138985786Y-81818019D03*
X139339340Y-81464466D03*
X139692893Y-81110913D03*
X140046447Y-80757359D03*
X140046447Y-89242641D03*
X140576777Y-88712311D03*
X140930330Y-88358757D03*
X141283883Y-88005204D03*
X141637437Y-87651650D03*
X141990990Y-87298097D03*
X142344544Y-86944544D03*
X142698097Y-86590990D03*
X143051650Y-86237437D03*
X143405204Y-85883883D03*
X144642641Y-84646447D03*
X139692893Y-88889087D03*
X139869670Y-88358757D03*
X143758757Y-84469670D03*
X143935534Y-83939340D03*
X139516117Y-88005204D03*
X143405204Y-84116117D03*
X138985786Y-88181981D03*
X139162563Y-87651650D03*
X143051650Y-83762563D03*
X138632233Y-87828427D03*
X143228427Y-83232233D03*
X138809010Y-87298097D03*
X138278680Y-87474874D03*
X142874874Y-82878680D03*
X138455456Y-86944544D03*
X137925126Y-87121320D03*
X142521320Y-82525126D03*
X138101903Y-86590990D03*
X141990990Y-82701903D03*
X137571573Y-86767767D03*
X142167767Y-82171573D03*
X137748350Y-86237437D03*
X141637437Y-82348350D03*
X137218019Y-86414214D03*
X141814214Y-81818019D03*
X141283883Y-81994796D03*
X136864466Y-86060660D03*
X141460660Y-81464466D03*
X137041243Y-85530330D03*
X140930330Y-81641243D03*
%TD*%
D17*
%TO.C,C9*%
X131200000Y-84400000D03*
X131200000Y-82850000D03*
%TD*%
D16*
%TO.C,C23*%
X145077408Y-90200000D03*
X143527408Y-90200000D03*
%TD*%
D46*
%TO.C,R2*%
X169665000Y-69960000D03*
X168015000Y-69960000D03*
%TD*%
D14*
%TO.C,C18*%
X173840000Y-83745000D03*
X173840000Y-85295000D03*
%TD*%
M02*
