M48
; DRILL file {KiCad 7.99.0-1450-gc37332bdb3} date Sat 19 Aug 2023 18:08:10 BST
; FORMAT={-:-/ absolute / metric / decimal}
; #@! TF.CreationDate,2023-08-19T18:08:10+01:00
; #@! TF.GenerationSoftware,Kicad,Pcbnew,7.99.0-1450-gc37332bdb3
; #@! TF.FileFunction,NonPlated,1,4,NPTH
FMAT,2
METRIC
; #@! TA.AperFunction,NonPlated,NPTH,ComponentDrill
T1C0.650
; #@! TA.AperFunction,NonPlated,NPTH,ComponentDrill
T2C0.991
; #@! TA.AperFunction,NonPlated,NPTH,ComponentDrill
T3C1.702
; #@! TA.AperFunction,NonPlated,NPTH,ComponentDrill
T4C2.200
; #@! TA.AperFunction,NonPlated,NPTH,ComponentDrill
T5C3.000
; #@! TA.AperFunction,NonPlated,NPTH,ComponentDrill
T6C3.988
%
G90
G05
T1
X169.59Y-48.47
X175.37Y-48.47
T2
X151.03Y-67.4
X156.11Y-66.384
X156.11Y-68.416
T3
X67.64Y-101.06
X67.675Y-62.86
X67.685Y-82.0
X77.8Y-101.06
X77.835Y-62.86
X77.845Y-82.0
X86.72Y-77.541
X86.72Y-96.6
X86.725Y-58.45
X96.88Y-77.541
X96.88Y-96.6
X96.885Y-58.45
X105.838Y-74.185
X105.839Y-93.244
X105.843Y-55.093
X115.998Y-74.185
X115.999Y-93.244
X116.003Y-55.093
X124.905Y-91.041
X124.909Y-52.891
X124.91Y-71.982
X135.065Y-91.041
X135.069Y-52.891
X135.07Y-71.982
X143.955Y-113.4
X143.978Y-73.101
X143.978Y-92.152
X143.982Y-54.009
X154.115Y-113.4
X154.138Y-73.101
X154.138Y-92.152
X154.142Y-54.009
X163.037Y-74.056
X163.037Y-93.114
X163.041Y-54.964
X164.769Y-114.093
X173.197Y-74.056
X173.197Y-93.114
X173.201Y-54.964
X174.831Y-115.507
X185.117Y-117.8
X194.883Y-120.6
T4
X64.23Y-52.23
X64.27Y-108.96
X81.81Y-72.32
X86.96Y-108.86
X119.38Y-82.55
X120.3Y-45.42
X140.41Y-121.32
X146.26Y-45.3
X163.29Y-84.13
X176.35Y-52.53
X176.63Y-104.99
X195.36Y-128.81
X199.61Y-113.66
T5
X70.18Y-106.14
X70.215Y-67.94
X70.225Y-87.08
X76.53Y-103.6
X76.565Y-65.4
X76.575Y-84.54
X89.26Y-82.621
X89.26Y-101.68
X89.265Y-63.53
X95.61Y-80.081
X95.61Y-99.14
X95.615Y-60.99
X108.378Y-79.265
X108.379Y-98.324
X108.383Y-60.173
X114.728Y-76.725
X114.729Y-95.784
X114.733Y-57.633
X127.445Y-96.121
X127.449Y-57.971
X127.45Y-77.062
X133.795Y-93.581
X133.799Y-55.431
X133.8Y-74.522
X146.495Y-118.48
X146.518Y-78.181
X146.518Y-97.232
X146.522Y-59.089
X152.845Y-115.94
X152.868Y-75.641
X152.868Y-94.692
X152.872Y-56.549
X165.577Y-79.136
X165.577Y-98.194
X165.581Y-60.044
X166.578Y-119.477
X171.927Y-76.596
X171.927Y-95.654
X171.931Y-57.504
X173.219Y-117.846
X186.158Y-123.383
X192.962Y-122.692
T6
X72.72Y-101.06
X72.755Y-62.86
X72.765Y-82.0
X91.8Y-77.541
X91.8Y-96.6
X91.805Y-58.45
X110.918Y-74.185
X110.919Y-93.244
X110.923Y-55.093
X129.985Y-91.041
X129.989Y-52.891
X129.99Y-71.982
X149.035Y-113.4
X149.058Y-73.101
X149.058Y-92.152
X149.062Y-54.009
X168.117Y-74.056
X168.117Y-93.114
X168.121Y-54.964
X169.8Y-114.8
X190.0Y-119.2
T0
M30
