%TF.GenerationSoftware,KiCad,Pcbnew,7.99.0-1450-gc37332bdb3*%
%TF.CreationDate,2023-08-19T12:21:20+01:00*%
%TF.ProjectId,benboard,62656e62-6f61-4726-942e-6b696361645f,rev?*%
%TF.SameCoordinates,Original*%
%TF.FileFunction,Soldermask,Top*%
%TF.FilePolarity,Negative*%
%FSLAX46Y46*%
G04 Gerber Fmt 4.6, Leading zero omitted, Abs format (unit mm)*
G04 Created by KiCad (PCBNEW 7.99.0-1450-gc37332bdb3) date 2023-08-19 12:21:20*
%MOMM*%
%LPD*%
G01*
G04 APERTURE LIST*
G04 Aperture macros list*
%AMRoundRect*
0 Rectangle with rounded corners*
0 $1 Rounding radius*
0 $2 $3 $4 $5 $6 $7 $8 $9 X,Y pos of 4 corners*
0 Add a 4 corners polygon primitive as box body*
4,1,4,$2,$3,$4,$5,$6,$7,$8,$9,$2,$3,0*
0 Add four circle primitives for the rounded corners*
1,1,$1+$1,$2,$3*
1,1,$1+$1,$4,$5*
1,1,$1+$1,$6,$7*
1,1,$1+$1,$8,$9*
0 Add four rect primitives between the rounded corners*
20,1,$1+$1,$2,$3,$4,$5,0*
20,1,$1+$1,$4,$5,$6,$7,0*
20,1,$1+$1,$6,$7,$8,$9,0*
20,1,$1+$1,$8,$9,$2,$3,0*%
G04 Aperture macros list end*
%ADD10RoundRect,0.250000X0.600000X0.750000X-0.600000X0.750000X-0.600000X-0.750000X0.600000X-0.750000X0*%
%ADD11O,1.700000X2.000000*%
%ADD12C,2.200000*%
%ADD13O,2.200000X3.500000*%
%ADD14R,1.500000X2.500000*%
%ADD15O,1.500000X2.500000*%
%ADD16C,1.701800*%
%ADD17C,3.000000*%
%ADD18C,3.987800*%
%ADD19RoundRect,0.243750X-0.456250X0.243750X-0.456250X-0.243750X0.456250X-0.243750X0.456250X0.243750X0*%
%ADD20C,0.990600*%
%ADD21C,0.650000*%
%ADD22O,1.000000X1.800000*%
%ADD23O,1.000000X2.100000*%
G04 APERTURE END LIST*
D10*
%TO.C,J4*%
X154330000Y-63750000D03*
D11*
X151830000Y-63750000D03*
%TD*%
D12*
%TO.C,REF\u002A\u002A*%
X176630000Y-104990000D03*
%TD*%
%TO.C,REF\u002A\u002A*%
X119380000Y-82550000D03*
%TD*%
%TO.C,REF\u002A\u002A*%
X163290000Y-84130000D03*
%TD*%
%TO.C,REF\u002A\u002A*%
X81810000Y-72320000D03*
%TD*%
%TO.C,REF\u002A\u002A*%
X174600000Y-45100000D03*
%TD*%
%TO.C,REF\u002A\u002A*%
X120300000Y-45420000D03*
%TD*%
%TO.C,REF\u002A\u002A*%
X195360000Y-128810000D03*
%TD*%
%TO.C,REF\u002A\u002A*%
X199610000Y-113660000D03*
%TD*%
%TO.C,REF\u002A\u002A*%
X140410000Y-121320000D03*
%TD*%
%TO.C,REF\u002A\u002A*%
X64270000Y-108960000D03*
%TD*%
%TO.C,REF\u002A\u002A*%
X86960000Y-108860000D03*
%TD*%
%TO.C,REF\u002A\u002A*%
X64230000Y-52230000D03*
%TD*%
D13*
%TO.C,SW22*%
X137750000Y-45440000D03*
X145950000Y-45440000D03*
D14*
X139850000Y-45440000D03*
D15*
X141850000Y-45440000D03*
X143850000Y-45440000D03*
%TD*%
D16*
%TO.C,SW16*%
X173201483Y-54964220D03*
D17*
X171931483Y-57504220D03*
D18*
X168121483Y-54964220D03*
D17*
X165581483Y-60044220D03*
D16*
X163041483Y-54964220D03*
%TD*%
%TO.C,SW6*%
X96880000Y-96600000D03*
D17*
X95610000Y-99140000D03*
D18*
X91800000Y-96600000D03*
D17*
X89260000Y-101680000D03*
D16*
X86720000Y-96600000D03*
%TD*%
%TO.C,SW8*%
X115998494Y-74184805D03*
D17*
X114728494Y-76724805D03*
D18*
X110918494Y-74184805D03*
D17*
X108378494Y-79264805D03*
D16*
X105838494Y-74184805D03*
%TD*%
%TO.C,SW5*%
X96879895Y-77541207D03*
D17*
X95609895Y-80081207D03*
D18*
X91799895Y-77541207D03*
D17*
X89259895Y-82621207D03*
D16*
X86719895Y-77541207D03*
%TD*%
%TO.C,SW18*%
X173196830Y-93114347D03*
D17*
X171926830Y-95654347D03*
D18*
X168116830Y-93114347D03*
D17*
X165576830Y-98194347D03*
D16*
X163036830Y-93114347D03*
%TD*%
%TO.C,SW10*%
X135069237Y-52890911D03*
D17*
X133799237Y-55430911D03*
D18*
X129989237Y-52890911D03*
D17*
X127449237Y-57970911D03*
D16*
X124909237Y-52890911D03*
%TD*%
D19*
%TO.C,D2*%
X152030000Y-44852500D03*
X152030000Y-46727500D03*
%TD*%
D16*
%TO.C,SW4*%
X96884653Y-58449873D03*
D17*
X95614653Y-60989873D03*
D18*
X91804653Y-58449873D03*
D17*
X89264653Y-63529873D03*
D16*
X86724653Y-58449873D03*
%TD*%
%TO.C,SW14*%
X154137663Y-73100569D03*
D17*
X152867663Y-75640569D03*
D18*
X149057663Y-73100569D03*
D17*
X146517663Y-78180569D03*
D16*
X143977663Y-73100569D03*
%TD*%
%TO.C,SW9*%
X115998599Y-93243598D03*
D17*
X114728599Y-95783598D03*
D18*
X110918599Y-93243598D03*
D17*
X108378599Y-98323598D03*
D16*
X105838599Y-93243598D03*
%TD*%
%TO.C,SW7*%
X116003252Y-55093471D03*
D17*
X114733252Y-57633471D03*
D18*
X110923252Y-55093471D03*
D17*
X108383252Y-60173471D03*
D16*
X105843252Y-55093471D03*
%TD*%
%TO.C,SW11*%
X135070000Y-71982245D03*
D17*
X133800000Y-74522245D03*
D18*
X129990000Y-71982245D03*
D17*
X127450000Y-77062245D03*
D16*
X124910000Y-71982245D03*
%TD*%
%TO.C,SW19*%
X154115000Y-113400000D03*
D17*
X152845000Y-115940000D03*
D18*
X149035000Y-113400000D03*
D17*
X146495000Y-118480000D03*
D16*
X143955000Y-113400000D03*
%TD*%
%TO.C,SW2*%
X77845000Y-82000000D03*
D17*
X76575000Y-84540000D03*
D18*
X72765000Y-82000000D03*
D17*
X70225000Y-87080000D03*
D16*
X67685000Y-82000000D03*
%TD*%
D19*
%TO.C,D3*%
X148990000Y-44852500D03*
X148990000Y-46727500D03*
%TD*%
D16*
%TO.C,SW15*%
X154137731Y-92151836D03*
D17*
X152867731Y-94691836D03*
D18*
X149057731Y-92151836D03*
D17*
X146517731Y-97231836D03*
D16*
X143977731Y-92151836D03*
%TD*%
%TO.C,SW21*%
X194883208Y-120600237D03*
D17*
X192962287Y-122691782D03*
D18*
X189999999Y-119199999D03*
D17*
X186158157Y-123383090D03*
D16*
X185116790Y-117799761D03*
%TD*%
%TO.C,SW1*%
X77835000Y-62860000D03*
D17*
X76565000Y-65400000D03*
D18*
X72755000Y-62860000D03*
D17*
X70215000Y-67940000D03*
D16*
X67675000Y-62860000D03*
%TD*%
%TO.C,SW20*%
X174830562Y-115506999D03*
D17*
X173219422Y-117845530D03*
D18*
X169800000Y-114800000D03*
D17*
X166577720Y-119477062D03*
D16*
X164769438Y-114093001D03*
%TD*%
%TO.C,SW3*%
X77800000Y-101060000D03*
D17*
X76530000Y-103600000D03*
D18*
X72720000Y-101060000D03*
D17*
X70180000Y-106140000D03*
D16*
X67640000Y-101060000D03*
%TD*%
%TO.C,SW12*%
X135064584Y-91041038D03*
D17*
X133794584Y-93581038D03*
D18*
X129984584Y-91041038D03*
D17*
X127444584Y-96121038D03*
D16*
X124904584Y-91041038D03*
%TD*%
D19*
%TO.C,D1*%
X155070000Y-44852500D03*
X155070000Y-46727500D03*
%TD*%
D16*
%TO.C,SW13*%
X154142421Y-54009235D03*
D17*
X152872421Y-56549235D03*
D18*
X149062421Y-54009235D03*
D17*
X146522421Y-59089235D03*
D16*
X143982421Y-54009235D03*
%TD*%
%TO.C,SW17*%
X173196725Y-74055554D03*
D17*
X171926725Y-76595554D03*
D18*
X168116725Y-74055554D03*
D17*
X165576725Y-79135554D03*
D16*
X163036725Y-74055554D03*
%TD*%
D20*
%TO.C,J3*%
X151030000Y-67400000D03*
X156110000Y-66384000D03*
X156110000Y-68416000D03*
%TD*%
D21*
%TO.C,J1*%
X169590000Y-48470000D03*
X175370000Y-48470000D03*
D22*
X168160000Y-44790000D03*
D23*
X168160000Y-48990000D03*
D22*
X176800000Y-44790000D03*
D23*
X176800000Y-48990000D03*
%TD*%
M02*
