M48
; DRILL file {KiCad 7.99.0-1450-gc37332bdb3} date Sat 19 Aug 2023 18:08:10 BST
; FORMAT={-:-/ absolute / metric / decimal}
; #@! TF.CreationDate,2023-08-19T18:08:10+01:00
; #@! TF.GenerationSoftware,Kicad,Pcbnew,7.99.0-1450-gc37332bdb3
; #@! TF.FileFunction,Plated,1,4,PTH
FMAT,2
METRIC
; #@! TA.AperFunction,Plated,PTH,ViaDrill
T1C0.150
; #@! TA.AperFunction,Plated,PTH,ComponentDrill
T2C0.200
; #@! TA.AperFunction,Plated,PTH,ViaDrill
T3C0.300
; #@! TA.AperFunction,Plated,PTH,ViaDrill
T4C0.400
; #@! TA.AperFunction,Plated,PTH,ComponentDrill
T5C0.600
; #@! TA.AperFunction,Plated,PTH,ComponentDrill
T6C0.900
; #@! TA.AperFunction,Plated,PTH,ComponentDrill
T7C1.000
; #@! TA.AperFunction,Plated,PTH,ComponentDrill
T8C1.500
%
G90
G05
T1
X66.0Y-108.4
X66.2Y-70.6
X104.2Y-101.4
X104.633Y-62.2
X130.0Y-82.8
X130.2Y-85.6
X132.755Y-80.38
X134.647Y-77.245
X134.71Y-77.69
X135.107Y-80.42
X135.52Y-85.82
X135.6Y-86.8
X135.72Y-82.55
X135.878Y-83.766
X135.915Y-84.268
X136.27Y-78.835
X136.449Y-84.738
X136.624Y-81.2
X136.649Y-82.049
X136.8Y-81.613
X137.05Y-79.74
X137.068Y-77.22
X137.205Y-77.649
X137.377Y-84.016
X137.4Y-96.0
X137.576Y-88.778
X137.825Y-83.688
X138.027Y-86.684
X138.049Y-82.17
X138.268Y-78.468
X138.713Y-82.687
X138.713Y-87.313
X139.067Y-82.334
X139.072Y-87.736
X139.144Y-92.481
X139.375Y-90.075
X139.419Y-81.979
X139.423Y-88.078
X139.689Y-88.44
X139.736Y-89.446
X139.766Y-81.606
X140.157Y-80.802
X140.966Y-81.677
X141.319Y-82.031
X141.424Y-76.2
X141.673Y-82.384
X141.8Y-72.2
X141.95Y-90.545
X142.166Y-82.878
X142.393Y-90.466
X142.445Y-82.525
X142.5Y-86.97
X142.62Y-71.034
X142.84Y-86.62
X143.185Y-88.155
X143.2Y-116.0
X143.22Y-86.26
X143.51Y-84.083
X143.55Y-85.87
X143.6Y-100.0
X143.6Y-100.6
X143.6Y-101.2
X143.625Y-99.425
X143.876Y-85.524
X144.1Y-83.0
X144.168Y-84.243
X144.285Y-85.075
X144.41Y-83.864
X144.5Y-83.0
X144.75Y-85.904
X144.854Y-83.864
X144.9Y-83.0
X145.083Y-86.237
X145.265Y-83.864
X145.3Y-83.0
X145.6Y-84.2
X145.6Y-84.6
X145.6Y-85.0
X145.6Y-85.4
X145.6Y-85.8
X145.6Y-86.2
X145.6Y-86.6
X145.6Y-87.0
X145.66Y-82.73
X146.0Y-82.5
X146.0Y-87.3
X146.0Y-91.0
X146.0Y-91.0
X146.4Y-82.5
X146.4Y-87.3
X146.8Y-82.5
X146.8Y-87.3
X147.2Y-87.3
X147.25Y-82.5
X147.6Y-87.3
X147.7Y-82.5
X148.0Y-87.3
X148.1Y-82.5
X148.4Y-87.3
X148.5Y-82.5
X148.8Y-87.3
X149.0Y-82.3
X149.0Y-85.8
X149.0Y-86.2
X149.0Y-86.6
X149.0Y-87.0
X149.3Y-82.0
X149.4Y-85.8
X149.6Y-81.7
X149.68Y-66.025
X149.8Y-85.8
X149.9Y-81.4
X149.9Y-86.8
X150.2Y-81.1
X150.2Y-85.8
X150.6Y-81.1
X150.6Y-85.8
X151.0Y-81.1
X151.0Y-85.8
X151.305Y-81.995
X151.305Y-84.945
X151.4Y-81.1
X151.4Y-85.8
X151.666Y-89.51
X151.8Y-81.1
X151.8Y-85.8
X152.2Y-81.1
X152.2Y-85.8
X152.6Y-81.1
X152.6Y-85.8
X153.0Y-81.3
X153.0Y-81.7
X153.0Y-82.1
X153.0Y-82.6
X153.0Y-83.0
X153.0Y-83.4
X153.0Y-83.8
X153.0Y-84.2
X153.0Y-84.6
X153.0Y-85.0
X153.0Y-85.4
X153.0Y-85.8
X153.234Y-88.712
X153.9Y-82.55
X153.964Y-81.07
X154.37Y-102.83
X156.27Y-85.85
X157.22Y-53.22
X157.33Y-52.47
X157.35Y-66.56
X158.434Y-64.996
X158.6Y-64.164
X158.78Y-87.68
X159.048Y-64.14
X159.496Y-64.18
X159.73Y-70.894
X159.78Y-46.53
X159.91Y-44.692
X159.945Y-64.174
X160.4Y-49.86
X160.617Y-106.714
X160.7Y-68.33
X161.202Y-106.698
X161.22Y-58.47
X161.4Y-62.8
X161.4Y-76.6
X161.79Y-106.685
X161.88Y-52.91
X162.24Y-71.75
X162.26Y-70.68
X162.32Y-69.435
X162.33Y-49.67
X162.4Y-100.4
X162.75Y-51.514
X162.95Y-44.692
X162.96Y-67.77
X163.09Y-65.38
X164.85Y-71.18
X165.06Y-67.8
X165.28Y-65.32
X165.99Y-44.692
X166.24Y-63.57
X168.8Y-51.0
X169.584Y-69.16
X170.135Y-69.236
X171.42Y-52.96
X171.61Y-51.34
X171.98Y-87.74
X172.255Y-62.505
X172.4Y-51.4
X172.6Y-45.8
X172.85Y-51.4
X173.15Y-106.96
X173.42Y-67.44
X173.52Y-52.92
X173.54Y-65.91
X173.57Y-64.895
X173.74Y-114.14
X174.65Y-61.994
X176.2Y-51.0
X176.63Y-107.39
X178.47Y-109.02
X178.918Y-112.383
X179.01Y-111.811
X179.33Y-117.1
X181.31Y-117.15
X181.33Y-105.161
X181.356Y-107.174
X181.586Y-113.796
X181.6Y-124.6
X182.002Y-114.132
X182.35Y-114.56
X182.722Y-114.942
X183.32Y-117.06
T2
X169.41Y-65.07
X169.41Y-66.07
X169.41Y-67.07
X170.41Y-65.07
X170.41Y-66.07
X170.41Y-67.07
X171.41Y-65.07
X171.41Y-66.07
X171.41Y-67.07
T3
X166.063Y-66.762
X171.095Y-69.96
X173.14Y-63.73
T4
X157.43Y-54.0
X158.559Y-65.897
T6
X151.5Y-45.29
X153.5Y-45.29
X155.5Y-45.29
T7
X151.83Y-63.75
X154.33Y-63.75
T8
X149.4Y-45.29
X157.6Y-45.29
T5
X168.16Y-44.39G85X168.16Y-45.19
G05
X168.16Y-48.44G85X168.16Y-49.54
G05
X176.8Y-44.39G85X176.8Y-45.19
G05
X176.8Y-48.44G85X176.8Y-49.54
G05
T0
M30
