%TF.GenerationSoftware,KiCad,Pcbnew,7.0.6*%
%TF.CreationDate,2023-07-25T14:06:58+01:00*%
%TF.ProjectId,benboard,62656e62-6f61-4726-942e-6b696361645f,rev?*%
%TF.SameCoordinates,Original*%
%TF.FileFunction,Soldermask,Top*%
%TF.FilePolarity,Negative*%
%FSLAX46Y46*%
G04 Gerber Fmt 4.6, Leading zero omitted, Abs format (unit mm)*
G04 Created by KiCad (PCBNEW 7.0.6) date 2023-07-25 14:06:58*
%MOMM*%
%LPD*%
G01*
G04 APERTURE LIST*
G04 Aperture macros list*
%AMRoundRect*
0 Rectangle with rounded corners*
0 $1 Rounding radius*
0 $2 $3 $4 $5 $6 $7 $8 $9 X,Y pos of 4 corners*
0 Add a 4 corners polygon primitive as box body*
4,1,4,$2,$3,$4,$5,$6,$7,$8,$9,$2,$3,0*
0 Add four circle primitives for the rounded corners*
1,1,$1+$1,$2,$3*
1,1,$1+$1,$4,$5*
1,1,$1+$1,$6,$7*
1,1,$1+$1,$8,$9*
0 Add four rect primitives between the rounded corners*
20,1,$1+$1,$2,$3,$4,$5,0*
20,1,$1+$1,$4,$5,$6,$7,0*
20,1,$1+$1,$6,$7,$8,$9,0*
20,1,$1+$1,$8,$9,$2,$3,0*%
G04 Aperture macros list end*
%ADD10RoundRect,0.225000X0.225000X0.250000X-0.225000X0.250000X-0.225000X-0.250000X0.225000X-0.250000X0*%
%ADD11C,1.701800*%
%ADD12C,3.000000*%
%ADD13C,3.987800*%
%ADD14RoundRect,0.225000X-0.225000X-0.250000X0.225000X-0.250000X0.225000X0.250000X-0.225000X0.250000X0*%
%ADD15RoundRect,0.243750X-0.243750X-0.456250X0.243750X-0.456250X0.243750X0.456250X-0.243750X0.456250X0*%
%ADD16RoundRect,0.218750X0.218750X0.256250X-0.218750X0.256250X-0.218750X-0.256250X0.218750X-0.256250X0*%
%ADD17RoundRect,0.200000X0.200000X0.275000X-0.200000X0.275000X-0.200000X-0.275000X0.200000X-0.275000X0*%
%ADD18C,0.650000*%
%ADD19O,1.000000X1.800000*%
%ADD20O,1.000000X2.100000*%
G04 APERTURE END LIST*
D10*
%TO.C,C21*%
X148250674Y-83339570D03*
X146700674Y-83339570D03*
%TD*%
D11*
%TO.C,SW16*%
X173201483Y-54964220D03*
D12*
X171931483Y-57504220D03*
D13*
X168121483Y-54964220D03*
D12*
X165581483Y-60044220D03*
D11*
X163041483Y-54964220D03*
%TD*%
%TO.C,SW6*%
X96880000Y-96600000D03*
D12*
X95610000Y-99140000D03*
D13*
X91800000Y-96600000D03*
D12*
X89260000Y-101680000D03*
D11*
X86720000Y-96600000D03*
%TD*%
%TO.C,SW8*%
X115998494Y-74184805D03*
D12*
X114728494Y-76724805D03*
D13*
X110918494Y-74184805D03*
D12*
X108378494Y-79264805D03*
D11*
X105838494Y-74184805D03*
%TD*%
%TO.C,SW5*%
X96879895Y-77541207D03*
D12*
X95609895Y-80081207D03*
D13*
X91799895Y-77541207D03*
D12*
X89259895Y-82621207D03*
D11*
X86719895Y-77541207D03*
%TD*%
%TO.C,SW18*%
X173196830Y-93114347D03*
D12*
X171926830Y-95654347D03*
D13*
X168116830Y-93114347D03*
D12*
X165576830Y-98194347D03*
D11*
X163036830Y-93114347D03*
%TD*%
%TO.C,SW10*%
X135069237Y-52890911D03*
D12*
X133799237Y-55430911D03*
D13*
X129989237Y-52890911D03*
D12*
X127449237Y-57970911D03*
D11*
X124909237Y-52890911D03*
%TD*%
%TO.C,SW4*%
X96884653Y-58449873D03*
D12*
X95614653Y-60989873D03*
D13*
X91804653Y-58449873D03*
D12*
X89264653Y-63529873D03*
D11*
X86724653Y-58449873D03*
%TD*%
D14*
%TO.C,C14*%
X149825000Y-83336216D03*
X151375000Y-83336216D03*
%TD*%
D11*
%TO.C,SW14*%
X154137663Y-73100569D03*
D12*
X152867663Y-75640569D03*
D13*
X149057663Y-73100569D03*
D12*
X146517663Y-78180569D03*
D11*
X143977663Y-73100569D03*
%TD*%
%TO.C,SW9*%
X115998599Y-93243598D03*
D12*
X114728599Y-95783598D03*
D13*
X110918599Y-93243598D03*
D12*
X108378599Y-98323598D03*
D11*
X105838599Y-93243598D03*
%TD*%
%TO.C,SW7*%
X116003252Y-55093471D03*
D12*
X114733252Y-57633471D03*
D13*
X110923252Y-55093471D03*
D12*
X108383252Y-60173471D03*
D11*
X105843252Y-55093471D03*
%TD*%
D15*
%TO.C,RED1*%
X164262500Y-44209486D03*
X166137500Y-44209486D03*
%TD*%
D11*
%TO.C,SW11*%
X135070000Y-71982245D03*
D12*
X133800000Y-74522245D03*
D13*
X129990000Y-71982245D03*
D12*
X127450000Y-77062245D03*
D11*
X124910000Y-71982245D03*
%TD*%
D16*
%TO.C,L4*%
X149787500Y-81800000D03*
X148212500Y-81800000D03*
%TD*%
D11*
%TO.C,SW19*%
X154115000Y-113400000D03*
D12*
X152845000Y-115940000D03*
D13*
X149035000Y-113400000D03*
D12*
X146495000Y-118480000D03*
D11*
X143955000Y-113400000D03*
%TD*%
%TO.C,SW2*%
X77845000Y-82000000D03*
D12*
X76575000Y-84540000D03*
D13*
X72765000Y-82000000D03*
D12*
X70225000Y-87080000D03*
D11*
X67685000Y-82000000D03*
%TD*%
D17*
%TO.C,R3*%
X166127883Y-46591412D03*
X164477883Y-46591412D03*
%TD*%
D11*
%TO.C,SW15*%
X154137731Y-92151836D03*
D12*
X152867731Y-94691836D03*
D13*
X149057731Y-92151836D03*
D12*
X146517731Y-97231836D03*
D11*
X143977731Y-92151836D03*
%TD*%
%TO.C,SW21*%
X194883208Y-120600237D03*
D12*
X192962287Y-122691782D03*
D13*
X189999999Y-119199999D03*
D12*
X186158157Y-123383090D03*
D11*
X185116790Y-117799761D03*
%TD*%
%TO.C,SW1*%
X77835000Y-62860000D03*
D12*
X76565000Y-65400000D03*
D13*
X72755000Y-62860000D03*
D12*
X70215000Y-67940000D03*
D11*
X67675000Y-62860000D03*
%TD*%
%TO.C,SW20*%
X174830562Y-115506999D03*
D12*
X173219422Y-117845530D03*
D13*
X169800000Y-114800000D03*
D12*
X166577720Y-119477062D03*
D11*
X164769438Y-114093001D03*
%TD*%
%TO.C,SW3*%
X77800000Y-101060000D03*
D12*
X76530000Y-103600000D03*
D13*
X72720000Y-101060000D03*
D12*
X70180000Y-106140000D03*
D11*
X67640000Y-101060000D03*
%TD*%
%TO.C,SW12*%
X135064584Y-91041038D03*
D12*
X133794584Y-93581038D03*
D13*
X129984584Y-91041038D03*
D12*
X127444584Y-96121038D03*
D11*
X124904584Y-91041038D03*
%TD*%
%TO.C,SW13*%
X154142421Y-54009235D03*
D12*
X152872421Y-56549235D03*
D13*
X149062421Y-54009235D03*
D12*
X146522421Y-59089235D03*
D11*
X143982421Y-54009235D03*
%TD*%
%TO.C,SW17*%
X173196725Y-74055554D03*
D12*
X171926725Y-76595554D03*
D13*
X168116725Y-74055554D03*
D12*
X165576725Y-79135554D03*
D11*
X163036725Y-74055554D03*
%TD*%
D18*
%TO.C,J1*%
X169590000Y-48470000D03*
X175370000Y-48470000D03*
D19*
X168160000Y-44790000D03*
D20*
X168160000Y-48990000D03*
D19*
X176800000Y-44790000D03*
D20*
X176800000Y-48990000D03*
%TD*%
M02*
