M48
; DRILL file {KiCad 7.0.6} date Tue 25 Jul 2023 14:07:26 BST
; FORMAT={-:-/ absolute / inch / decimal}
; #@! TF.CreationDate,2023-07-25T14:07:26+01:00
; #@! TF.GenerationSoftware,Kicad,Pcbnew,7.0.6
; #@! TF.FileFunction,Plated,1,4,PTH
FMAT,2
INCH
; #@! TA.AperFunction,Plated,PTH,ViaDrill
T1C0.0059
; #@! TA.AperFunction,Plated,PTH,ComponentDrill
T2C0.0236
%
G90
G05
T1
X2.5984Y-4.2677
X2.6063Y-2.7795
X4.1024Y-3.9921
X4.1102Y-2.4803
X5.1024Y-3.1654
X5.1181Y-3.2598
X5.126Y-3.3701
X5.2388Y-3.1801
X5.2668Y-3.1201
X5.3386Y-3.4173
X5.3495Y-3.2979
X5.351Y-3.3176
X5.3571Y-3.3437
X5.3622Y-3.1801
X5.3789Y-3.1969
X5.3791Y-3.3789
X5.3799Y-3.2303
X5.3858Y-3.2131
X5.4038Y-3.3758
X5.4085Y-3.3077
X5.4094Y-3.7795
X5.4341Y-3.4127
X5.4402Y-3.241
X5.4436Y-3.0893
X5.4612Y-3.2554
X5.4751Y-3.2415
X5.4753Y-3.4542
X5.4889Y-3.2275
X5.4891Y-3.4676
X5.4996Y-3.4819
X5.5026Y-3.2128
X5.5118Y-3.5276
X5.5118Y-3.5591
X5.5118Y-3.6535
X5.5197Y-3.189
X5.5498Y-3.2156
X5.5591Y-3.4882
X5.5637Y-3.2296
X5.5679Y-3.0
X5.5777Y-3.2435
X5.5817Y-3.527
X5.5827Y-2.8425
X5.5971Y-3.2629
X5.6142Y-3.2469
X5.6376Y-3.2945
X5.6378Y-4.5669
X5.6457Y-3.2469
X5.6466Y-3.4414
X5.6466Y-3.4646
X5.65Y-3.3106
X5.6535Y-3.937
X5.6535Y-3.9606
X5.6535Y-3.9843
X5.6644Y-3.3302
X5.6693Y-3.3622
X5.6929Y-3.4094
X5.7104Y-3.2608
X5.7165Y-3.3106
X5.748Y-3.5827
X5.748Y-3.5827
X5.7918Y-3.1726
X6.1654Y-3.5827
X6.2126Y-3.2215
X6.2333Y-2.7323
X6.2421Y-2.622
X6.251Y-2.7323
X6.2598Y-2.622
X6.3543Y-2.4724
X6.3543Y-3.0157
X6.3937Y-1.9921
X6.3937Y-3.9528
X6.4252Y-1.8346
X6.5118Y-1.7874
X6.5591Y-3.252
X6.5675Y-3.4575
X6.6142Y-3.5039
X6.6457Y-2.0079
X6.6614Y-3.315
X6.7008Y-3.5118
X6.7874Y-2.0236
X6.7953Y-1.8031
X6.8051Y-2.0236
X6.8268Y-3.2469
X6.8976Y-2.0
X6.937Y-2.0079
X7.1496Y-4.9055
T2
G00X6.6205Y-1.7476
M15
G01X6.6205Y-1.7791
M16
G05
G00X6.6205Y-1.9071
M15
G01X6.6205Y-1.9504
M16
G05
G00X6.9606Y-1.7476
M15
G01X6.9606Y-1.7791
M16
G05
G00X6.9606Y-1.9071
M15
G01X6.9606Y-1.9504
M16
G05
T0
M30
