%TF.GenerationSoftware,KiCad,Pcbnew,7.0.6*%
%TF.CreationDate,2023-07-25T14:06:58+01:00*%
%TF.ProjectId,benboard,62656e62-6f61-4726-942e-6b696361645f,rev?*%
%TF.SameCoordinates,Original*%
%TF.FileFunction,Paste,Bot*%
%TF.FilePolarity,Positive*%
%FSLAX46Y46*%
G04 Gerber Fmt 4.6, Leading zero omitted, Abs format (unit mm)*
G04 Created by KiCad (PCBNEW 7.0.6) date 2023-07-25 14:06:58*
%MOMM*%
%LPD*%
G01*
G04 APERTURE LIST*
G04 Aperture macros list*
%AMRoundRect*
0 Rectangle with rounded corners*
0 $1 Rounding radius*
0 $2 $3 $4 $5 $6 $7 $8 $9 X,Y pos of 4 corners*
0 Add a 4 corners polygon primitive as box body*
4,1,4,$2,$3,$4,$5,$6,$7,$8,$9,$2,$3,0*
0 Add four circle primitives for the rounded corners*
1,1,$1+$1,$2,$3*
1,1,$1+$1,$4,$5*
1,1,$1+$1,$6,$7*
1,1,$1+$1,$8,$9*
0 Add four rect primitives between the rounded corners*
20,1,$1+$1,$2,$3,$4,$5,0*
20,1,$1+$1,$4,$5,$6,$7,0*
20,1,$1+$1,$6,$7,$8,$9,0*
20,1,$1+$1,$8,$9,$2,$3,0*%
%AMRotRect*
0 Rectangle, with rotation*
0 The origin of the aperture is its center*
0 $1 length*
0 $2 width*
0 $3 Rotation angle, in degrees counterclockwise*
0 Add horizontal line*
21,1,$1,$2,0,0,$3*%
G04 Aperture macros list end*
%ADD10R,2.550000X2.500000*%
%ADD11RotRect,2.550000X2.500000X164.000000*%
%ADD12RotRect,2.550000X2.500000X172.000000*%
%ADD13RoundRect,0.225000X0.250000X-0.225000X0.250000X0.225000X-0.250000X0.225000X-0.250000X-0.225000X0*%
%ADD14RoundRect,0.225000X-0.250000X0.225000X-0.250000X-0.225000X0.250000X-0.225000X0.250000X0.225000X0*%
%ADD15RoundRect,0.225000X0.225000X0.250000X-0.225000X0.250000X-0.225000X-0.250000X0.225000X-0.250000X0*%
%ADD16R,0.600000X1.240000*%
%ADD17R,0.300000X1.240000*%
%ADD18RoundRect,0.200000X-0.200000X-0.275000X0.200000X-0.275000X0.200000X0.275000X-0.200000X0.275000X0*%
%ADD19R,1.200000X1.400000*%
%ADD20R,1.400000X1.200000*%
%ADD21RoundRect,0.200000X0.200000X0.275000X-0.200000X0.275000X-0.200000X-0.275000X0.200000X-0.275000X0*%
%ADD22RoundRect,0.218750X0.218750X0.256250X-0.218750X0.256250X-0.218750X-0.256250X0.218750X-0.256250X0*%
%ADD23RoundRect,0.225000X-0.225000X-0.250000X0.225000X-0.250000X0.225000X0.250000X-0.225000X0.250000X0*%
%ADD24RoundRect,0.200000X-0.275000X0.200000X-0.275000X-0.200000X0.275000X-0.200000X0.275000X0.200000X0*%
%ADD25RoundRect,0.218750X-0.256250X0.218750X-0.256250X-0.218750X0.256250X-0.218750X0.256250X0.218750X0*%
%ADD26RotRect,2.000000X2.000000X225.000000*%
%ADD27C,0.250000*%
%ADD28RoundRect,0.160000X0.160000X0.160000X-0.160000X0.160000X-0.160000X-0.160000X0.160000X-0.160000X0*%
%ADD29RoundRect,0.062500X0.375000X0.062500X-0.375000X0.062500X-0.375000X-0.062500X0.375000X-0.062500X0*%
%ADD30RoundRect,0.062500X0.062500X0.375000X-0.062500X0.375000X-0.062500X-0.375000X0.062500X-0.375000X0*%
G04 APERTURE END LIST*
D10*
%TO.C,SW16*%
X161831483Y-60044220D03*
X175681483Y-57504220D03*
%TD*%
%TO.C,SW6*%
X85510000Y-101680000D03*
X99360000Y-99140000D03*
%TD*%
%TO.C,SW8*%
X104628494Y-79264805D03*
X118478494Y-76724805D03*
%TD*%
%TO.C,SW5*%
X85509895Y-82621207D03*
X99359895Y-80081207D03*
%TD*%
%TO.C,SW18*%
X161826830Y-98194347D03*
X175676830Y-95654347D03*
%TD*%
%TO.C,SW10*%
X123699237Y-57970911D03*
X137549237Y-55430911D03*
%TD*%
%TO.C,SW4*%
X85514653Y-63529873D03*
X99364653Y-60989873D03*
%TD*%
%TO.C,SW14*%
X142767663Y-78180569D03*
X156617663Y-75640569D03*
%TD*%
%TO.C,SW9*%
X104628599Y-98323598D03*
X118478599Y-95783598D03*
%TD*%
%TO.C,SW7*%
X104633252Y-60173471D03*
X118483252Y-57633471D03*
%TD*%
%TO.C,SW11*%
X123700000Y-77062245D03*
X137550000Y-74522245D03*
%TD*%
%TO.C,SW19*%
X142745000Y-118480000D03*
X156595000Y-115940000D03*
%TD*%
%TO.C,SW2*%
X66475000Y-87080000D03*
X80325000Y-84540000D03*
%TD*%
%TO.C,SW15*%
X142767731Y-97231836D03*
X156617731Y-94691836D03*
%TD*%
D11*
%TO.C,SW21*%
X182553425Y-122349449D03*
X196567019Y-123725422D03*
%TD*%
D10*
%TO.C,SW1*%
X66465000Y-67940000D03*
X80315000Y-65400000D03*
%TD*%
D12*
%TO.C,SW20*%
X162864214Y-118955163D03*
X176932927Y-118367430D03*
%TD*%
D10*
%TO.C,SW3*%
X66430000Y-106140000D03*
X80280000Y-103600000D03*
%TD*%
%TO.C,SW12*%
X123694584Y-96121038D03*
X137544584Y-93581038D03*
%TD*%
%TO.C,SW13*%
X142772421Y-59089235D03*
X156622421Y-56549235D03*
%TD*%
%TO.C,SW17*%
X161826725Y-79135554D03*
X175676725Y-76595554D03*
%TD*%
D13*
%TO.C,C19*%
X166246194Y-87146139D03*
X166246194Y-85596139D03*
%TD*%
%TO.C,C10*%
X132800000Y-84375000D03*
X132800000Y-82825000D03*
%TD*%
D14*
%TO.C,C7*%
X145504428Y-87121268D03*
X145504428Y-88671268D03*
%TD*%
D15*
%TO.C,C16*%
X148992412Y-85508809D03*
X147442412Y-85508809D03*
%TD*%
D13*
%TO.C,C22*%
X139886827Y-97301166D03*
X139886827Y-95751166D03*
%TD*%
D15*
%TO.C,C5*%
X135375000Y-80400000D03*
X133825000Y-80400000D03*
%TD*%
D14*
%TO.C,C11*%
X134400000Y-85825000D03*
X134400000Y-87375000D03*
%TD*%
%TO.C,C12*%
X131200000Y-85850000D03*
X131200000Y-87400000D03*
%TD*%
D16*
%TO.C,J1*%
X169280000Y-49590000D03*
X170080000Y-49590000D03*
D17*
X171230000Y-49590000D03*
X172230000Y-49590000D03*
X172730000Y-49590000D03*
X173730000Y-49590000D03*
D16*
X174880000Y-49590000D03*
X175680000Y-49590000D03*
X175680000Y-49590000D03*
X174880000Y-49590000D03*
D17*
X174230000Y-49590000D03*
X173230000Y-49590000D03*
X171730000Y-49590000D03*
X170730000Y-49590000D03*
D16*
X170080000Y-49590000D03*
X169280000Y-49590000D03*
%TD*%
D18*
%TO.C,R4*%
X172081324Y-85657554D03*
X173731324Y-85657554D03*
%TD*%
D19*
%TO.C,Y2*%
X139989279Y-93969402D03*
X139989279Y-91569402D03*
X141889279Y-91569402D03*
X141889279Y-93969402D03*
%TD*%
D20*
%TO.C,Y1*%
X147417412Y-87158809D03*
X149817412Y-87158809D03*
X149817412Y-89058809D03*
X147417412Y-89058809D03*
%TD*%
D13*
%TO.C,C8*%
X141800000Y-74975000D03*
X141800000Y-73425000D03*
%TD*%
D21*
%TO.C,R5*%
X171931324Y-84057554D03*
X170281324Y-84057554D03*
%TD*%
D14*
%TO.C,C20*%
X172152538Y-87749209D03*
X172152538Y-89299209D03*
%TD*%
D22*
%TO.C,L2*%
X150787500Y-84000000D03*
X149212500Y-84000000D03*
%TD*%
D23*
%TO.C,C3*%
X152225000Y-84000000D03*
X153775000Y-84000000D03*
%TD*%
D14*
%TO.C,C13*%
X132800000Y-85850000D03*
X132800000Y-87400000D03*
%TD*%
D15*
%TO.C,C18*%
X168081324Y-84057554D03*
X166531324Y-84057554D03*
%TD*%
D14*
%TO.C,C6*%
X138400000Y-89825000D03*
X138400000Y-91375000D03*
%TD*%
D23*
%TO.C,C4*%
X150842412Y-85508809D03*
X152392412Y-85508809D03*
%TD*%
D24*
%TO.C,R2*%
X174229800Y-51491831D03*
X174229800Y-53141831D03*
%TD*%
D25*
%TO.C,L3*%
X134400000Y-82812500D03*
X134400000Y-84387500D03*
%TD*%
D22*
%TO.C,L1*%
X147787500Y-84000000D03*
X146212500Y-84000000D03*
%TD*%
D14*
%TO.C,C17*%
X151617412Y-87733809D03*
X151617412Y-89283809D03*
%TD*%
D26*
%TO.C,U1*%
X138685266Y-85000000D03*
X140400000Y-86714734D03*
X140400000Y-83285266D03*
X142114734Y-85000000D03*
D27*
X141814214Y-88181981D03*
X142167767Y-87828427D03*
X142521320Y-87474874D03*
X142874874Y-87121320D03*
X143228427Y-86767767D03*
X143581981Y-86414214D03*
X143935534Y-86060660D03*
X144289087Y-85707107D03*
X144642641Y-85353553D03*
X141107107Y-81110913D03*
X136687689Y-85176777D03*
X137041243Y-84469670D03*
X137748350Y-83762563D03*
X138101903Y-83409010D03*
X138455456Y-83055456D03*
X138809010Y-82701903D03*
X139162563Y-82348350D03*
X139516117Y-81994796D03*
X139869670Y-81641243D03*
X140753553Y-80757359D03*
X136157359Y-84646447D03*
X136510913Y-84292893D03*
X136864466Y-83939340D03*
X137218019Y-83585786D03*
X137571573Y-83232233D03*
X137925126Y-82878680D03*
X138278680Y-82525126D03*
X138632233Y-82171573D03*
X138985786Y-81818019D03*
X139339340Y-81464466D03*
X139692893Y-81110913D03*
X140046447Y-80757359D03*
X140046447Y-89242641D03*
X140576777Y-88712311D03*
X140930330Y-88358757D03*
X141283883Y-88005204D03*
X141637437Y-87651650D03*
X141990990Y-87298097D03*
X142344544Y-86944544D03*
X142698097Y-86590990D03*
X143051650Y-86237437D03*
X143405204Y-85883883D03*
X144642641Y-84646447D03*
X139692893Y-88889087D03*
X139869670Y-88358757D03*
X143758757Y-84469670D03*
X143935534Y-83939340D03*
X139516117Y-88005204D03*
X143405204Y-84116117D03*
X138985786Y-88181981D03*
X139162563Y-87651650D03*
X143051650Y-83762563D03*
X138632233Y-87828427D03*
X143228427Y-83232233D03*
X138809010Y-87298097D03*
X138278680Y-87474874D03*
X142874874Y-82878680D03*
X138455456Y-86944544D03*
X137925126Y-87121320D03*
X142521320Y-82525126D03*
X138101903Y-86590990D03*
X141990990Y-82701903D03*
X137571573Y-86767767D03*
X142167767Y-82171573D03*
X137748350Y-86237437D03*
X141637437Y-82348350D03*
X137218019Y-86414214D03*
X141814214Y-81818019D03*
X141283883Y-81994796D03*
X136864466Y-86060660D03*
X141460660Y-81464466D03*
X137041243Y-85530330D03*
X140930330Y-81641243D03*
%TD*%
D13*
%TO.C,C9*%
X131200000Y-84400000D03*
X131200000Y-82850000D03*
%TD*%
D15*
%TO.C,C1*%
X132375000Y-80400000D03*
X130825000Y-80400000D03*
%TD*%
D24*
%TO.C,R1*%
X171229482Y-51482928D03*
X171229482Y-53132928D03*
%TD*%
D15*
%TO.C,C23*%
X145077408Y-90200000D03*
X143527408Y-90200000D03*
%TD*%
D28*
%TO.C,U2*%
X169600000Y-87400000D03*
X169600000Y-86600000D03*
X168800000Y-87400000D03*
X168800000Y-86600000D03*
D29*
X170637500Y-86250000D03*
X170637500Y-86750000D03*
X170637500Y-87250000D03*
X170637500Y-87750000D03*
D30*
X169950000Y-88437500D03*
X169450000Y-88437500D03*
X168950000Y-88437500D03*
X168450000Y-88437500D03*
D29*
X167762500Y-87750000D03*
X167762500Y-87250000D03*
X167762500Y-86750000D03*
X167762500Y-86250000D03*
D30*
X168450000Y-85562500D03*
X168950000Y-85562500D03*
X169450000Y-85562500D03*
X169950000Y-85562500D03*
%TD*%
D14*
%TO.C,C2*%
X157800000Y-81825000D03*
X157800000Y-83375000D03*
%TD*%
M02*
